<svg width="31" height="30" viewBox="0 0 31 30" fill="none" xmlns="http://www.w3.org/2000/svg">
<path d="M14.6689 23.4375H16.5439V15.9375H24.0439V14.0625H16.5439V6.5625H14.6689V14.0625H7.16894V15.9375H14.6689V23.4375ZM3.63645 30C2.7727 30 2.05207 29.7112 1.47457 29.1337C0.89707 28.5562 0.607695 27.835 0.606445 26.97V3.03C0.606445 2.16625 0.89582 1.44562 1.47457 0.868125C2.05332 0.290625 2.77395 0.00125 3.63645 0H27.5783C28.4408 0 29.1614 0.289375 29.7402 0.868125C30.3189 1.44687 30.6077 2.1675 30.6064 3.03V26.9719C30.6064 27.8344 30.3177 28.555 29.7402 29.1337C29.1627 29.7125 28.4414 30.0012 27.5764 30H3.63645ZM3.63645 28.125H27.5783C27.8658 28.125 28.1302 28.005 28.3714 27.765C28.6127 27.525 28.7327 27.26 28.7314 26.97V3.03C28.7314 2.74125 28.6114 2.47625 28.3714 2.235C28.1314 1.99375 27.8664 1.87375 27.5764 1.875H3.63645C3.3477 1.875 3.08269 1.995 2.84144 2.235C2.60019 2.475 2.4802 2.74 2.48145 3.03V26.9719C2.48145 27.2594 2.60144 27.5237 2.84144 27.765C3.08144 28.0062 3.34582 28.1262 3.63457 28.125" fill="#1D1D1B"/>
</svg>
