<svg width="43" height="38" viewBox="0 0 43 38" fill="none" xmlns="http://www.w3.org/2000/svg">
<path d="M28.4849 8.67248e-06L27.2372 1.24509L5.07154 23.8273L0.648955 26.2387L5.71318 35.5266L10.1369 33.1145L12.7962 32.5592L12.8202 32.6861L12.8405 32.7233C13.4326 35.5814 16.2984 37.5552 19.2746 36.9325C19.2881 36.9297 19.2982 36.9151 19.3094 36.9135C22.1808 36.3194 24.1634 33.4686 23.5156 30.4782L23.4909 30.3501L41.1246 26.7146L42.8464 26.3391L28.4849 8.67248e-06ZM27.8661 4.38589L38.8251 24.4847L9.43166 30.5319L9.26996 30.5749L6.76747 31.9394L4.23536 27.2955L6.73669 25.9316L6.86272 25.8177L27.8661 4.38589ZM15.3828 32.0419L20.9049 30.8685L20.929 30.9954L20.9479 31.0303C21.2895 32.6062 20.2106 34.056 18.7572 34.3439C17.1827 34.6858 15.7176 33.6607 15.4272 32.206L15.4082 32.1712L15.3828 32.0419Z" fill="#1D1D1B"/>
</svg>
