<svg width="18" height="18" viewBox="0 0 18 18" fill="none" xmlns="http://www.w3.org/2000/svg">
<path d="M15.2055 1.90801H13.4325V1.02151C13.4325 0.786395 13.3391 0.560911 13.1729 0.39466C13.0066 0.228409 12.7811 0.13501 12.546 0.13501C12.3109 0.13501 12.0854 0.228409 11.9192 0.39466C11.7529 0.560911 11.6595 0.786395 11.6595 1.02151V1.90801H6.34051V1.02151C6.34051 0.786395 6.24711 0.560911 6.08086 0.39466C5.91461 0.228409 5.68912 0.13501 5.45401 0.13501C5.2189 0.13501 4.99341 0.228409 4.82716 0.39466C4.66091 0.560911 4.56751 0.786395 4.56751 1.02151V1.90801H2.79451C2.08917 1.90801 1.41271 2.18821 0.913959 2.68696C0.415206 3.18571 0.13501 3.86217 0.13501 4.56751V15.2055C0.13501 15.9109 0.415206 16.5873 0.913959 17.0861C1.41271 17.5848 2.08917 17.865 2.79451 17.865H15.2055C15.9109 17.865 16.5873 17.5848 17.0861 17.0861C17.5848 16.5873 17.865 15.9109 17.865 15.2055V4.56751C17.865 3.86217 17.5848 3.18571 17.0861 2.68696C16.5873 2.18821 15.9109 1.90801 15.2055 1.90801ZM16.092 15.2055C16.092 15.4406 15.9986 15.6661 15.8324 15.8324C15.6661 15.9986 15.4406 16.092 15.2055 16.092H2.79451C2.5594 16.092 2.33391 15.9986 2.16766 15.8324C2.00141 15.6661 1.90801 15.4406 1.90801 15.2055V9.00001H16.092V15.2055ZM16.092 7.22701H1.90801V4.56751C1.90801 4.3324 2.00141 4.10691 2.16766 3.94066C2.33391 3.77441 2.5594 3.68101 2.79451 3.68101H4.56751V4.56751C4.56751 4.80262 4.66091 5.02811 4.82716 5.19436C4.99341 5.36061 5.2189 5.45401 5.45401 5.45401C5.68912 5.45401 5.91461 5.36061 6.08086 5.19436C6.24711 5.02811 6.34051 4.80262 6.34051 4.56751V3.68101H11.6595V4.56751C11.6595 4.80262 11.7529 5.02811 11.9192 5.19436C12.0854 5.36061 12.3109 5.45401 12.546 5.45401C12.7811 5.45401 13.0066 5.36061 13.1729 5.19436C13.3391 5.02811 13.4325 4.80262 13.4325 4.56751V3.68101H15.2055C15.4406 3.68101 15.6661 3.77441 15.8324 3.94066C15.9986 4.10691 16.092 4.3324 16.092 4.56751V7.22701Z" fill="black"/>
</svg>
