<svg width="44" height="44" viewBox="0 0 44 44" fill="none" xmlns="http://www.w3.org/2000/svg">
<g id="Group 1">
<path id="Vector" d="M44 22C44 34.1647 34.1647 44 22 44C9.83529 44 -4.29914e-07 34.1647 -9.61651e-07 22C-1.49339e-06 9.83529 9.83529 -4.29914e-07 22 -9.61651e-07C34.1647 -1.49339e-06 44 9.83529 44 22ZM2.58823 22C2.58823 32.7412 11.2588 41.4118 22 41.4118C32.7412 41.4118 41.4118 32.7412 41.4118 22C41.4118 11.2588 32.7412 2.58823 22 2.58823C11.2588 2.58823 2.58823 11.2588 2.58823 22Z" fill="#1D1D1B"/>
<path id="Vector_2" d="M24.2 11.2588L13.4589 21.9999L24.2 32.7411L22.3883 34.5529L9.83533 21.9999L22.3883 9.44699L24.2 11.2588Z" fill="#1D1D1B"/>
<path id="Vector_3" d="M11.6471 23.2941L11.6471 20.7059L33.6471 20.7059L33.6471 23.2941L11.6471 23.2941Z" fill="#1D1D1B"/>
</g>
</svg>
