<svg width="21" height="21" viewBox="0 0 21 21" fill="none" xmlns="http://www.w3.org/2000/svg">
<path d="M18.8984 11.0616V13.861C18.8984 14.851 18.5051 15.8004 17.8051 16.5004C17.1051 17.2004 16.1557 17.5937 15.1658 17.5937H5.83419C4.84424 17.5937 3.89483 17.2004 3.19482 16.5004C2.49482 15.8004 2.10156 14.851 2.10156 13.861V11.6215C2.10156 11.473 2.16055 11.3305 2.26555 11.2255C2.37055 11.1205 2.51296 11.0616 2.66146 11.0616H18.8984ZM18.8984 11.0616V5.46261C18.8984 4.47266 18.5051 3.52325 17.8051 2.82324C17.1051 2.12324 16.1557 1.72998 15.1658 1.72998H10.5M14.2326 17.5937L15.1658 19.46M6.76735 17.5937L5.83419 19.46" stroke="#9C9C9C" stroke-width="3" stroke-linecap="round" stroke-linejoin="round"/>
<path d="M13.6729 6.39577H7.32739C7.01851 6.39577 6.77123 6.14568 6.80482 5.83774C6.94106 4.59944 7.57281 1.72998 10.5001 1.72998C13.4274 1.72998 14.0592 4.59944 14.1954 5.83774C14.229 6.14568 13.9817 6.39577 13.6729 6.39577Z" stroke="#9C9C9C" stroke-width="3" stroke-linecap="round" stroke-linejoin="round"/>
</svg>
