<svg width="24" height="24" viewBox="0 0 24 24" fill="none" xmlns="http://www.w3.org/2000/svg">
<path d="M20.5001 2.66665H18.1667V1.49998C18.1667 1.19056 18.0438 0.893814 17.825 0.675022C17.6062 0.456229 17.3095 0.333313 17.0001 0.333313C16.6907 0.333313 16.3939 0.456229 16.1751 0.675022C15.9563 0.893814 15.8334 1.19056 15.8334 1.49998V2.66665H8.83342V1.49998C8.83342 1.19056 8.7105 0.893814 8.49171 0.675022C8.27291 0.456229 7.97617 0.333313 7.66675 0.333313C7.35733 0.333313 7.06058 0.456229 6.84179 0.675022C6.623 0.893814 6.50008 1.19056 6.50008 1.49998V2.66665H4.16675C3.23849 2.66665 2.34825 3.0354 1.69187 3.69177C1.0355 4.34815 0.666748 5.23839 0.666748 6.16665V20.1666C0.666748 21.0949 1.0355 21.9851 1.69187 22.6415C2.34825 23.2979 3.23849 23.6666 4.16675 23.6666H20.5001C21.4283 23.6666 22.3186 23.2979 22.975 22.6415C23.6313 21.9851 24.0001 21.0949 24.0001 20.1666V6.16665C24.0001 5.23839 23.6313 4.34815 22.975 3.69177C22.3186 3.0354 21.4283 2.66665 20.5001 2.66665ZM21.6667 20.1666C21.6667 20.4761 21.5438 20.7728 21.325 20.9916C21.1062 21.2104 20.8095 21.3333 20.5001 21.3333H4.16675C3.85733 21.3333 3.56058 21.2104 3.34179 20.9916C3.123 20.7728 3.00008 20.4761 3.00008 20.1666V12H21.6667V20.1666ZM21.6667 9.66665H3.00008V6.16665C3.00008 5.85723 3.123 5.56048 3.34179 5.34169C3.56058 5.1229 3.85733 4.99998 4.16675 4.99998H6.50008V6.16665C6.50008 6.47607 6.623 6.77281 6.84179 6.9916C7.06058 7.2104 7.35733 7.33331 7.66675 7.33331C7.97617 7.33331 8.27291 7.2104 8.49171 6.9916C8.7105 6.77281 8.83342 6.47607 8.83342 6.16665V4.99998H15.8334V6.16665C15.8334 6.47607 15.9563 6.77281 16.1751 6.9916C16.3939 7.2104 16.6907 7.33331 17.0001 7.33331C17.3095 7.33331 17.6062 7.2104 17.825 6.9916C18.0438 6.77281 18.1667 6.47607 18.1667 6.16665V4.99998H20.5001C20.8095 4.99998 21.1062 5.1229 21.325 5.34169C21.5438 5.56048 21.6667 5.85723 21.6667 6.16665V9.66665Z" fill="#1D1D1B"/>
</svg>
