<svg width="38" height="34" viewBox="0 0 38 34" fill="none" xmlns="http://www.w3.org/2000/svg">
<path fill-rule="evenodd" clip-rule="evenodd" d="M11.5729 4.15325C12.0295 1.91324 14.0233 0.328125 16.306 0.328125H21.8941C24.1769 0.328125 26.1689 1.91324 26.6272 4.15325C26.6777 4.39991 26.8098 4.62241 27.0021 4.78493C27.1944 4.94746 27.4357 5.04056 27.6874 5.04926H27.7438C30.1428 5.15527 31.9862 5.44938 33.5251 6.45995C34.4946 7.09605 35.3291 7.9134 35.9789 8.86925C36.7877 10.0559 37.1433 11.4205 37.3143 13.0689C37.4819 14.6813 37.4819 16.7008 37.4819 19.2588V19.4042C37.4819 21.9622 37.4819 23.9834 37.3143 25.5941C37.1433 27.2425 36.7877 28.607 35.9789 29.7954C35.3255 30.7506 34.492 31.569 33.5251 32.2047C32.323 32.993 30.9431 33.3419 29.2708 33.5077C27.6327 33.6719 25.579 33.6719 22.9697 33.6719H15.2305C12.6211 33.6719 10.5675 33.6719 8.92937 33.5077C7.25706 33.3419 5.87714 32.9947 4.67505 32.2047C3.70799 31.5685 2.87447 30.7495 2.2213 29.7937C1.4125 28.607 1.05683 27.2425 0.885836 25.5941C0.718262 23.9834 0.718262 21.9622 0.718262 19.4042V19.2588C0.718262 16.7008 0.718262 14.6813 0.885836 13.0689C1.05683 11.4205 1.4125 10.0559 2.2213 8.86925C2.87447 7.91352 3.70799 7.09452 4.67505 6.45824C6.214 5.44938 8.05731 5.15527 10.4563 5.05097L10.4854 5.04926H10.5128C10.7644 5.04056 11.0058 4.94746 11.1981 4.78493C11.3904 4.62241 11.5224 4.39991 11.5729 4.15325ZM16.306 2.89303C15.2117 2.89303 14.2934 3.65053 14.0865 4.66452C13.7531 6.30606 12.2962 7.59877 10.5436 7.61416C8.23856 7.71676 7.00399 7.9989 6.08062 8.60421C5.3957 9.05551 4.80507 9.63569 4.34162 10.3124C3.86967 11.005 3.58582 11.8924 3.43535 13.3339C3.28488 14.7976 3.28317 16.6854 3.28317 19.3323C3.28317 21.9793 3.28317 23.8654 3.43706 25.3291C3.58582 26.7706 3.86967 27.658 4.34333 28.3523C4.80159 29.026 5.39152 29.6074 6.08233 30.0605C6.79537 30.5273 7.70848 30.8094 9.18415 30.9565C10.6786 31.1053 12.604 31.107 15.3006 31.107H22.8996C25.5944 31.107 27.5198 31.107 29.016 30.9565C30.4917 30.8094 31.4048 30.529 32.1178 30.0605C32.8086 29.6074 33.4003 29.026 33.8585 28.3506C34.3305 27.658 34.6143 26.7706 34.7648 25.3291C34.9153 23.8654 34.917 21.9776 34.917 19.3323C34.917 16.6871 34.917 14.7976 34.7631 13.3339C34.6143 11.8924 34.3305 11.005 33.8568 10.3124C33.3935 9.63507 32.8029 9.05431 32.1178 8.6025C31.1979 7.9989 29.9633 7.71676 27.6549 7.61416C25.9039 7.59706 24.447 6.30777 24.1136 4.66452C24.0042 4.15884 23.7236 3.70643 23.3192 3.38368C22.9148 3.06093 22.4115 2.88762 21.8941 2.89303H16.306ZM19.1001 12.2977C19.4402 12.2977 19.7664 12.4328 20.0069 12.6733C20.2474 12.9138 20.3825 13.24 20.3825 13.5801V17.4275H24.2299C24.57 17.4275 24.8962 17.5626 25.1367 17.8031C25.3772 18.0436 25.5123 18.3698 25.5123 18.7099C25.5123 19.0501 25.3772 19.3763 25.1367 19.6168C24.8962 19.8573 24.57 19.9924 24.2299 19.9924H20.3825V23.8397C20.3825 24.1799 20.2474 24.5061 20.0069 24.7466C19.7664 24.9871 19.4402 25.1222 19.1001 25.1222C18.7599 25.1222 18.4338 24.9871 18.1932 24.7466C17.9527 24.5061 17.8176 24.1799 17.8176 23.8397V19.9924H13.9703C13.6301 19.9924 13.3039 19.8573 13.0634 19.6168C12.8229 19.3763 12.6878 19.0501 12.6878 18.7099C12.6878 18.3698 12.8229 18.0436 13.0634 17.8031C13.3039 17.5626 13.6301 17.4275 13.9703 17.4275H17.8176V13.5801C17.8176 13.24 17.9527 12.9138 18.1932 12.6733C18.4338 12.4328 18.7599 12.2977 19.1001 12.2977ZM28.0772 13.5801C28.0772 13.24 28.2124 12.9138 28.4529 12.6733C28.6934 12.4328 29.0196 12.2977 29.3597 12.2977H31.0696C31.4098 12.2977 31.7359 12.4328 31.9765 12.6733C32.217 12.9138 32.3521 13.24 32.3521 13.5801C32.3521 13.9203 32.217 14.2464 31.9765 14.487C31.7359 14.7275 31.4098 14.8626 31.0696 14.8626H29.3597C29.0196 14.8626 28.6934 14.7275 28.4529 14.487C28.2124 14.2464 28.0772 13.9203 28.0772 13.5801Z" fill="#1D1D1B"/>
</svg>
