<svg width="25" height="24" viewBox="0 0 25 24" fill="none" xmlns="http://www.w3.org/2000/svg">
<path d="M19.5 14.835H17.5V12.865H19.5M20.5 19.76V21.73H16.5V19.76H17.5V17.79H16.5V15.82H19.5V19.76M19.42 4.98501C19.3163 4.69603 19.1239 4.44597 18.8694 4.26949C18.615 4.093 18.3112 3.99883 18 4.00001H7C6.68882 3.99883 6.38497 4.093 6.13055 4.26949C5.87613 4.44597 5.68372 4.69603 5.58 4.98501L3.5 10.895V18.775C3.5 19.0362 3.60536 19.2868 3.79289 19.4715C3.98043 19.6562 4.23478 19.76 4.5 19.76H5.5C5.76522 19.76 6.01957 19.6562 6.20711 19.4715C6.39464 19.2868 6.5 19.0362 6.5 18.775V17.79H11.5C11.5 15.9613 12.2375 14.2076 13.5503 12.9145C14.863 11.6214 16.6435 10.895 18.5 10.895C19.5387 10.891 20.5646 11.1201 21.5 11.5648V10.895M7 14.835C6.70333 14.835 6.41332 14.7484 6.16664 14.586C5.91997 14.4237 5.72771 14.1929 5.61418 13.9229C5.50065 13.6529 5.47094 13.3559 5.52882 13.0693C5.5867 12.7827 5.72956 12.5194 5.93934 12.3128C6.14912 12.1061 6.41639 11.9654 6.70736 11.9084C6.99834 11.8514 7.29994 11.8806 7.57403 11.9925C7.84811 12.1043 8.08238 12.2937 8.2472 12.5367C8.41203 12.7796 8.5 13.0653 8.5 13.3575C8.5 13.7494 8.34196 14.1252 8.06066 14.4023C7.77936 14.6793 7.39782 14.835 7 14.835ZM5.5 9.91001L7 5.47751H18L19.5 9.91001H5.5Z" fill="black"/>
</svg>
