<svg width="58" height="49" viewBox="0 0 58 49" fill="none" xmlns="http://www.w3.org/2000/svg">
<path fill-rule="evenodd" clip-rule="evenodd" d="M39.5856 0.440308C41.1735 0.440362 42.73 0.882526 44.0808 1.71727C45.4316 2.55201 46.5233 3.74636 47.2336 5.16653L51.1845 13.0654C51.88 12.7804 52.5641 12.4725 53.2369 12.1419C53.9135 11.8039 54.6967 11.7486 55.4141 11.9881C56.1315 12.2276 56.7244 12.7423 57.0623 13.4189C57.4003 14.0955 57.4556 14.8787 57.2161 15.5961C56.9766 16.3135 56.4619 16.9064 55.7853 17.2444C55.1001 17.5493 54.4111 17.8458 53.7186 18.1337L56.458 23.6154C57.0526 24.8039 57.362 26.1147 57.3616 27.4436V34.647C57.3616 35.8502 57.1077 37.0398 56.6165 38.1381C56.1253 39.2364 55.4079 40.2188 54.5111 41.0209V44.624C54.5111 45.758 54.0606 46.8456 53.2587 47.6474C52.4568 48.4493 51.3693 48.8998 50.2352 48.8998C49.1012 48.8998 48.0136 48.4493 47.2118 47.6474C46.4099 46.8456 45.9594 45.758 45.9594 44.624V43.1987H11.7527V44.624C11.7527 45.758 11.3022 46.8456 10.5003 47.6474C9.69846 48.4493 8.61088 48.8998 7.47686 48.8998C6.34284 48.8998 5.25526 48.4493 4.45339 47.6474C3.65151 46.8456 3.20102 45.758 3.20102 44.624V41.0209C1.45078 39.4531 0.350464 37.1783 0.350464 34.647V27.4408C0.350997 26.1137 0.660365 24.805 1.25409 23.6182L3.97067 18.1793C3.28274 17.8905 2.60336 17.5798 1.93252 17.2472C1.25931 16.9049 0.747574 16.3117 0.507623 15.5956C0.267671 14.8795 0.318723 14.0977 0.649773 13.4189C0.816983 13.0838 1.0486 12.7849 1.33139 12.5393C1.61418 12.2937 1.94259 12.1062 2.29786 11.9876C2.65312 11.869 3.02828 11.8216 3.40189 11.8481C3.77549 11.8745 4.14022 11.9744 4.47522 12.1419C5.14985 12.4744 5.83399 12.7823 6.52762 13.0654L10.4785 5.16938C11.1884 3.74868 12.28 2.55375 13.6308 1.71848C14.9816 0.883217 16.5383 0.440626 18.1265 0.440308H39.5856ZM16.0285 26.0953C14.8945 26.0953 13.8069 26.5458 13.0051 27.3477C12.2032 28.1496 11.7527 29.2372 11.7527 30.3712C11.7527 31.5052 12.2032 32.5928 13.0051 33.3946C13.8069 34.1965 14.8945 34.647 16.0285 34.647C17.1626 34.647 18.2501 34.1965 19.052 33.3946C19.8539 32.5928 20.3044 31.5052 20.3044 30.3712C20.3044 29.2372 19.8539 28.1496 19.052 27.3477C18.2501 26.5458 17.1626 26.0953 16.0285 26.0953ZM41.6836 26.0953C40.5495 26.0953 39.462 26.5458 38.6601 27.3477C37.8582 28.1496 37.4077 29.2372 37.4077 30.3712C37.4077 31.5052 37.8582 32.5928 38.6601 33.3946C39.462 34.1965 40.5495 34.647 41.6836 34.647C42.8176 34.647 43.9052 34.1965 44.707 33.3946C45.5089 32.5928 45.9594 31.5052 45.9594 30.3712C45.9594 29.2372 45.5089 28.1496 44.707 27.3477C43.9052 26.5458 42.8176 26.0953 41.6836 26.0953ZM39.5856 6.14143H18.1265C17.6574 6.14136 17.1954 6.25709 16.7817 6.47838C16.368 6.69966 16.0153 7.01964 15.7549 7.40992L15.5781 7.71778L11.9579 14.9525C16.3706 16.2752 22.3169 17.5437 28.8561 17.5437C34.9619 17.5437 40.5462 16.4376 44.8477 15.2148L45.7513 14.9525L42.134 7.71778C41.9242 7.29822 41.6141 6.93692 41.2312 6.66592C40.8483 6.39492 40.4045 6.22259 39.939 6.16423L39.5884 6.14143H39.5856Z" fill="#1D1D1B"/>
</svg>
