<svg width="18" height="18" viewBox="0 0 18 18" fill="none" xmlns="http://www.w3.org/2000/svg">
<path d="M7.36636 0.873271L7.10268 0.707909C6.58663 0.391499 5.94251 0.20768 5.38879 0.380199C4.79364 0.565525 4.31903 1.02394 4.07042 1.71251L3.71634 1.5302C3.10612 1.21605 2.7867 1.21115 2.5219 1.33018C2.31058 1.42473 2.09022 1.65224 1.84049 1.98447L4.94431 4.38429C5.43023 4.54249 6.14215 4.53873 6.85407 4.35415C7.56976 4.16958 8.28168 3.80797 8.8015 3.32206L9.97297 0.4254C8.94087 -0.390108 7.99918 0.0822465 7.36636 0.873271ZM9.36652 3.75524C8.72616 4.40312 7.77317 4.84007 7.03111 5.03594C6.7712 5.10374 6.5113 5.15271 6.25892 5.17908C6.11955 5.40885 6.00278 5.64239 5.91238 5.87593C6.09318 6.79503 6.43219 7.54839 6.94071 8.16614L6.39829 8.61815C6.08565 8.24147 5.80691 7.83466 5.59597 7.38265C5.56207 8.25654 5.75794 9.16057 6.07812 10.1023L5.4114 10.3283C4.82378 8.61062 4.62414 6.85153 5.44906 5.19415C5.17032 5.17155 4.90665 5.11881 4.66181 5.03218L4.65051 5.02841C4.48853 5.18285 4.3341 5.34482 4.18719 5.51432C2.99802 6.89297 2.34297 8.72739 2.68575 10.155C2.86919 10.9197 3.19803 11.6429 3.67114 12.2606C4.36423 12.2456 5.01965 12.2606 5.6148 12.4866C5.89731 12.4565 6.18735 12.4377 6.4887 12.4377C7.56223 12.4377 8.53406 12.6373 9.26858 12.9839C9.55486 13.1195 9.81476 13.2814 10.0219 13.466C10.0219 13.2664 10.0521 13.0517 10.1123 12.8935C9.7771 12.577 9.56616 12.1928 9.56616 11.7559C9.56616 11.1494 9.9692 10.6484 10.5531 10.2868C10.5531 10.1136 10.587 9.94783 10.6472 9.78962C10.2668 9.46191 10.0219 9.0551 10.0219 8.58048C10.0219 8.28291 10.1199 8.0117 10.2856 7.76686C10.1199 7.52579 10.0219 7.25458 10.0219 6.957C10.0219 6.8101 10.0445 6.67449 10.086 6.54266C9.72059 6.21871 9.49082 5.81943 9.49082 5.35989C9.49082 4.90411 9.71683 4.50859 10.0784 4.18842C9.8562 4.01514 9.61889 3.86824 9.36652 3.75524ZM13.5627 3.84187C12.5833 3.84187 11.6982 4.04905 11.0917 4.35415C10.4815 4.65926 10.1952 5.03594 10.1952 5.35989C10.1952 5.6876 10.4815 6.06427 11.0917 6.36938C11.6982 6.67449 12.5833 6.88167 13.5627 6.88167C13.9884 6.88167 14.3914 6.84023 14.7643 6.77243V6.13208C15.2879 6.05297 15.7211 5.90984 15.9998 5.72526V6.38822C16.4707 6.25261 16.9227 5.75163 16.934 5.35989C16.934 5.03594 16.6477 4.65926 16.0375 4.35415C15.4273 4.04905 14.5458 3.84187 13.5627 3.84187ZM17.1977 6.39198C17.0734 6.52382 16.9264 6.64813 16.7607 6.76113L16.7682 7.8535C17.2429 7.57099 17.4651 7.24328 17.4651 6.957C17.4651 6.7762 17.3785 6.58032 17.1977 6.39198ZM10.7263 6.97207C10.7376 7.29601 11.0239 7.66139 11.6228 7.96273C12.233 8.27161 13.1145 8.47501 14.0976 8.47501C14.7116 8.47501 15.2879 8.39215 15.7813 8.25654L15.8077 7.23198C15.1598 7.45798 14.3914 7.58229 13.5627 7.58229C12.4892 7.58229 11.5136 7.36758 10.7753 6.99844C10.7565 6.9909 10.7414 6.9796 10.7263 6.97207ZM10.8017 8.28291C10.7489 8.38461 10.7263 8.48632 10.7263 8.58048C10.7263 8.90819 11.0126 9.28487 11.6228 9.58998C12.233 9.89509 13.1145 10.0985 14.0976 10.0985C14.5948 10.0985 15.0657 10.0495 15.4913 9.95536V9.05133C15.0544 9.1342 14.5873 9.17564 14.0976 9.17564C13.0203 9.17564 12.0447 8.9647 11.3064 8.59179C11.1218 8.50138 10.9523 8.39591 10.8017 8.28291ZM17.3898 8.28291C17.16 8.44488 16.9604 8.56542 16.7268 8.66712V9.50711C17.2278 9.21707 17.4651 8.87806 17.4651 8.58048C17.4651 8.48632 17.4425 8.38461 17.3898 8.28291ZM17.6723 9.66908C17.5969 9.74442 17.5141 9.81599 17.4237 9.88756V11.108C17.8116 10.8443 18 10.5543 18 10.2906C18 10.091 17.8907 9.87626 17.6723 9.66908ZM11.265 10.1964C11.2612 10.2303 11.2574 10.2605 11.2574 10.2906C11.2574 10.6183 11.5437 10.9912 12.1539 11.2963C12.7642 11.6052 13.6493 11.8086 14.6287 11.8086C15.19 11.8086 15.7248 11.7408 16.1882 11.6278V10.5015C15.5742 10.6974 14.8623 10.8029 14.0976 10.8029C13.0203 10.8029 12.0447 10.5882 11.3064 10.219C11.2913 10.2115 11.28 10.204 11.265 10.1964ZM10.7527 11.0025C10.425 11.2474 10.2705 11.5148 10.2705 11.7559C10.2705 12.0836 10.5568 12.4565 11.167 12.7654C11.7773 13.0705 12.6587 13.2739 13.6418 13.2739C13.9997 13.2739 14.3462 13.2475 14.6701 13.1986V12.513H14.6287C13.5514 12.513 12.5758 12.2983 11.8375 11.9254C11.3667 11.6918 10.9749 11.3792 10.7527 11.0025ZM16.8737 12.1552C16.5761 12.2606 16.2522 12.3473 15.9057 12.4038V12.8595C15.9772 12.8294 16.0488 12.7993 16.1166 12.7654C16.4857 12.577 16.7343 12.3661 16.8737 12.1552ZM17.2203 12.8407C17.0771 12.9839 16.9114 13.1119 16.7268 13.2287V14.306C17.2278 14.0197 17.4651 13.6807 17.4651 13.3831C17.4651 13.2099 17.386 13.0215 17.2203 12.8407ZM4.08549 12.9462C3.70128 12.95 3.28693 12.9989 2.85752 13.1006C1.99831 13.3003 1.25965 13.6656 0.777499 14.0687C0.295351 14.468 0.107012 14.8748 0.163514 15.1648C0.220016 15.4549 0.517591 15.7223 1.09768 15.8767C1.67588 16.0274 2.48461 16.0349 3.34343 15.8353C3.68998 15.7524 4.01392 15.647 4.31149 15.5227V14.7429C4.86144 14.4981 5.27202 14.2043 5.4566 13.918V14.8371C5.91238 14.4454 6.08942 14.0536 6.03668 13.7673C5.98395 13.4773 5.6826 13.2099 5.10252 13.0592C4.81248 12.9839 4.46593 12.9424 4.08549 12.9462ZM6.51883 13.1421C6.62053 13.289 6.6921 13.4547 6.72977 13.6393C6.7712 13.8653 6.75237 14.0838 6.68457 14.2985C7.05748 14.3964 7.39649 14.5282 7.6903 14.694C7.85604 14.7844 8.01048 14.8936 8.14608 15.0066C8.48509 14.9275 8.77137 14.8145 8.97477 14.6789V15.4549C9.58122 15.1686 9.85997 14.8183 9.85997 14.5395C9.85997 14.257 9.58122 13.9067 8.971 13.6204C8.36455 13.3379 7.49066 13.1458 6.51883 13.1421ZM10.7301 13.3304C10.7263 13.3455 10.7263 13.3643 10.7263 13.3831C10.7263 13.7108 11.0126 14.0838 11.6228 14.3926C12.233 14.6977 13.1145 14.9011 14.0976 14.9011C14.5948 14.9011 15.0657 14.8484 15.4913 14.758V13.7447C14.9338 13.8954 14.3048 13.9783 13.6418 13.9783C12.5645 13.9783 11.5889 13.7636 10.8506 13.3944C10.8092 13.3718 10.7678 13.3492 10.7301 13.3304ZM10.8356 14.7354C10.7602 14.8597 10.7263 14.9802 10.7263 15.097C10.7263 15.4247 11.0126 15.7976 11.6228 16.1065C12.233 16.4116 13.1145 16.615 14.0976 16.615C14.5948 16.615 15.0657 16.5623 15.4913 16.4719V15.4775C15.0544 15.5603 14.5873 15.6055 14.0976 15.6055C13.0203 15.6055 12.0447 15.3908 11.3064 15.0179C11.1369 14.935 10.9787 14.8409 10.8356 14.7354ZM17.3559 14.7354C17.1374 14.8823 16.9453 14.9991 16.7268 15.0933V16.0199C17.2278 15.7336 17.4651 15.3946 17.4651 15.097C17.4651 14.9802 17.4312 14.8597 17.3559 14.7354ZM6.33426 14.9388C6.20242 15.1046 6.04798 15.2628 5.87471 15.4059C5.28709 15.8993 4.4584 16.2986 3.50164 16.5209C3.16037 16.6 2.82136 16.6489 2.49591 16.6753C2.61644 16.8749 2.82851 17.0708 3.1389 17.2441C3.65231 17.5341 4.40566 17.73 5.24189 17.73C5.62233 17.73 5.98395 17.6886 6.31542 17.617V16.8335C6.83524 16.7544 7.27219 16.6113 7.55093 16.4267V17.1198C7.92761 16.8561 8.10841 16.5585 8.10841 16.276C8.10841 15.9483 7.86357 15.598 7.34752 15.308C7.06878 15.1535 6.72224 15.0254 6.33426 14.9388Z" fill="#9C9C9C"/>
</svg>
