<svg width="50" height="54" viewBox="0 0 50 54" fill="none" xmlns="http://www.w3.org/2000/svg">
<path d="M12.604 16.202C12.604 15.7929 12.7665 15.4006 13.0558 15.1113C13.3451 14.822 13.7374 14.6595 14.1465 14.6595H23.4019C23.811 14.6595 24.2033 14.822 24.4926 15.1113C24.7819 15.4006 24.9444 15.7929 24.9444 16.202C24.9444 16.6111 24.7819 17.0035 24.4926 17.2928C24.2033 17.5821 23.811 17.7446 23.4019 17.7446H14.1465C13.7374 17.7446 13.3451 17.5821 13.0558 17.2928C12.7665 17.0035 12.604 16.6111 12.604 16.202ZM14.1465 20.8297C13.7374 20.8297 13.3451 20.9922 13.0558 21.2815C12.7665 21.5708 12.604 21.9631 12.604 22.3723C12.604 22.7814 12.7665 23.1737 13.0558 23.463C13.3451 23.7523 13.7374 23.9148 14.1465 23.9148H20.3168C20.7259 23.9148 21.1182 23.7523 21.4075 23.463C21.6968 23.1737 21.8593 22.7814 21.8593 22.3723C21.8593 21.9631 21.6968 21.5708 21.4075 21.2815C21.1182 20.9922 20.7259 20.8297 20.3168 20.8297H14.1465ZM18.7742 0.77649C15.5628 0.775409 12.4063 1.60985 9.61493 3.19783C6.82357 4.78581 4.49336 7.07268 2.85328 9.83375C1.21319 12.5948 0.319658 15.7351 0.260469 18.946C0.20128 22.1569 0.978475 25.3279 2.51569 28.1476L0.325259 35.8295C0.248184 36.0992 0.246131 36.3849 0.31932 36.6557C0.392509 36.9266 0.538169 37.1723 0.740623 37.3665C0.943077 37.5607 1.19466 37.696 1.46829 37.7579C1.74193 37.8197 2.02725 37.8058 2.29356 37.7176L9.50654 35.3143C11.9649 36.7349 14.7172 37.5709 17.5504 37.7577C20.3836 37.9445 23.2218 37.477 25.8454 36.3914C28.469 35.3058 30.8077 33.6312 32.6806 31.4971C34.5535 29.3631 35.9104 26.8268 36.6462 24.0845C37.3821 21.3421 37.4772 18.4673 36.9243 15.6823C36.3713 12.8973 35.1851 10.2769 33.4574 8.02366C31.7297 5.77046 29.5068 3.94491 26.9607 2.68823C24.4146 1.43155 21.6136 0.777439 18.7742 0.77649ZM3.34867 19.2871C3.34917 15.8645 4.48795 12.5393 6.58571 9.83492C8.68347 7.13054 11.6211 5.20063 14.936 4.34902C18.251 3.49741 21.7551 3.77246 24.8965 5.13088C28.038 6.4893 30.6385 8.85393 32.2886 11.8525C33.9387 14.8511 34.5447 18.3133 34.0112 21.694C33.4776 25.0748 31.8349 28.1821 29.3416 30.5268C26.8482 32.8715 23.6459 34.3203 20.2388 34.6453C16.8316 34.9702 13.4131 34.1528 10.5215 32.3217C10.3281 32.1991 10.1098 32.1211 9.8825 32.0933C9.65518 32.0656 9.42453 32.0888 9.20729 32.1613L4.09218 33.8674L5.66558 28.3728C5.72291 28.1704 5.73825 27.9585 5.71066 27.75C5.68308 27.5415 5.61314 27.3408 5.50516 27.1603C4.09235 24.7772 3.34744 22.0576 3.34867 19.2871ZM31.9661 43.8045L24.5557 40.1024C25.9173 39.7219 27.2161 39.22 28.4522 38.5968L32.6572 40.7009L46.5402 33.7594V31.6276C46.5402 30.8094 46.2152 30.0247 45.6366 29.4461C45.058 28.8675 44.2733 28.5425 43.4551 28.5425H38.2906C38.7637 27.5532 39.1586 26.5248 39.4753 25.4574H43.4551C45.0915 25.4574 46.6609 26.1074 47.8181 27.2646C48.9752 28.4217 49.6253 29.9911 49.6253 31.6276V47.0531C49.6253 48.6896 48.9752 50.259 47.8181 51.4161C46.6609 52.5733 45.0915 53.2233 43.4551 53.2233H21.8593C20.2229 53.2233 18.6535 52.5733 17.4963 51.4161C16.3392 50.259 15.6891 48.6896 15.6891 47.0531V40.667C16.6969 40.8109 17.7253 40.8829 18.7742 40.8829V47.0531C18.7742 47.8713 19.0993 48.6561 19.6778 49.2346C20.2564 49.8132 21.0411 50.1382 21.8593 50.1382H43.4551C44.2733 50.1382 45.058 49.8132 45.6366 49.2346C46.2152 48.6561 46.5402 47.8713 46.5402 47.0531V37.2085L33.3483 43.8045C33.1338 43.912 32.8971 43.968 32.6572 43.968C32.4173 43.968 32.1806 43.912 31.9661 43.8045Z" fill="#FFED00"/>
</svg>
