<svg width="24" height="24" viewBox="0 0 24 24" fill="none" xmlns="http://www.w3.org/2000/svg">
<g id="eva:pricetags-outline">
<path id="Vector" d="M12.8701 22.0001C12.3872 21.9995 11.9238 21.8091 11.5801 21.4701L5.17005 15.0501C5.00557 14.8865 4.90305 14.6709 4.88005 14.4401L4.00005 5.09005C3.98658 4.94358 4.00559 4.79595 4.05571 4.65767C4.10584 4.51939 4.18585 4.39387 4.29005 4.29005C4.39387 4.18585 4.51939 4.10584 4.65767 4.05571C4.79595 4.00559 4.94358 3.98658 5.09005 4.00005L14.4401 4.88005C14.6709 4.90305 14.8865 5.00557 15.0501 5.17005L21.4701 11.5801C21.8102 11.9212 22.0012 12.3833 22.0012 12.8651C22.0012 13.3468 21.8102 13.8089 21.4701 14.1501L14.1501 21.4701C13.8099 21.8086 13.3499 21.999 12.8701 22.0001ZM6.87005 13.8901L12.8701 19.8901L19.9201 12.8401L13.9201 6.84005L6.11005 6.11005L6.87005 13.8901Z" fill="#1D1D1B"/>
<path id="Vector_2" d="M10.5 12C11.3284 12 12 11.3284 12 10.5C12 9.67157 11.3284 9 10.5 9C9.67157 9 9 9.67157 9 10.5C9 11.3284 9.67157 12 10.5 12Z" fill="black"/>
</g>
</svg>
