<svg width="29" height="29" viewBox="0 0 29 29" fill="none" xmlns="http://www.w3.org/2000/svg">
<path d="M27.9897 14.5H9.97196M3.61216 14.5H1.0105M3.61216 14.5C3.61216 13.6568 3.94711 12.8482 4.54332 12.252C5.13953 11.6558 5.94816 11.3208 6.79133 11.3208C7.6345 11.3208 8.44313 11.6558 9.03934 12.252C9.63555 12.8482 9.9705 13.6568 9.9705 14.5C9.9705 15.3432 9.63555 16.1518 9.03934 16.748C8.44313 17.3442 7.6345 17.6792 6.79133 17.6792C5.94816 17.6792 5.13953 17.3442 4.54332 16.748C3.94711 16.1518 3.61216 15.3432 3.61216 14.5ZM27.9897 24.1352H19.6072M19.6072 24.1352C19.6072 24.9786 19.2714 25.7881 18.6751 26.3845C18.0787 26.9808 17.2699 27.3158 16.4265 27.3158C15.5834 27.3158 14.7747 26.9794 14.1785 26.3832C13.5823 25.787 13.2474 24.9784 13.2474 24.1352M19.6072 24.1352C19.6072 23.2918 19.2714 22.4838 18.6751 21.8874C18.0787 21.2911 17.2699 20.956 16.4265 20.956C15.5834 20.956 14.7747 21.291 14.1785 21.8872C13.5823 22.4834 13.2474 23.292 13.2474 24.1352M13.2474 24.1352H1.0105M27.9897 4.86479H23.4615M17.1017 4.86479H1.0105M17.1017 4.86479C17.1017 4.02162 17.4367 3.21299 18.0329 2.61678C18.6291 2.02057 19.4377 1.68562 20.2809 1.68562C20.6984 1.68562 21.1118 1.76785 21.4975 1.92762C21.8832 2.08739 22.2337 2.32157 22.5289 2.61678C22.8241 2.91199 23.0583 3.26246 23.2181 3.64818C23.3778 4.03389 23.4601 4.4473 23.4601 4.86479C23.4601 5.28228 23.3778 5.69569 23.2181 6.0814C23.0583 6.46712 22.8241 6.81759 22.5289 7.1128C22.2337 7.40801 21.8832 7.64219 21.4975 7.80196C21.1118 7.96172 20.6984 8.04396 20.2809 8.04396C19.4377 8.04396 18.6291 7.70901 18.0329 7.1128C17.4367 6.51659 17.1017 5.70796 17.1017 4.86479Z" stroke="#1D1D1B" stroke-width="1.5" stroke-miterlimit="10" stroke-linecap="round"/>
</svg>
