<svg width="13" height="14" viewBox="0 0 13 14" fill="none" xmlns="http://www.w3.org/2000/svg">
<path d="M12.1841 7.18005V9.07478C12.1841 9.7448 11.9179 10.3874 11.4442 10.8612C10.9704 11.3349 10.3278 11.6011 9.65778 11.6011H3.34199C2.67197 11.6011 2.02939 11.3349 1.55561 10.8612C1.08184 10.3874 0.815674 9.7448 0.815674 9.07478V7.55899C0.815674 7.45849 0.855599 7.3621 0.926665 7.29104C0.997731 7.21997 1.09412 7.18005 1.19462 7.18005H12.1841ZM12.1841 7.18005V3.39057C12.1841 2.72055 11.9179 2.07797 11.4442 1.6042C10.9704 1.13042 10.3278 0.864258 9.65778 0.864258H6.49989M9.0262 11.6011L9.65778 12.8643M3.97357 11.6011L3.34199 12.8643" stroke="#1D1D1B" stroke-width="1.5" stroke-linecap="round" stroke-linejoin="round"/>
<path d="M8.64732 4.02215H4.35258C4.14353 4.02215 3.97616 3.85289 3.9989 3.64447C4.09111 2.80636 4.51869 0.864258 6.49995 0.864258C8.48121 0.864258 8.90879 2.80636 9.001 3.64447C9.02374 3.85289 8.85637 4.02215 8.64732 4.02215Z" stroke="#1D1D1B" stroke-width="1.5" stroke-linecap="round" stroke-linejoin="round"/>
</svg>
