<svg width="52" height="51" viewBox="0 0 52 51" fill="none" xmlns="http://www.w3.org/2000/svg">
<g clip-path="url(#clip0_542_1970)">
<path fill-rule="evenodd" clip-rule="evenodd" d="M45.125 25.2641L35.6581 34.731L31.2084 30.107L20.7683 40.375H11.125C8.7875 40.375 6.875 38.4625 6.875 36.125V6.375H45.125V25.2641ZM35.5795 46.75L51.5 30.7743L48.5505 27.8503L35.6007 40.8L31.1255 36.1505L28.125 39.1L35.5795 46.75ZM19.625 29.75H11.125V27.625H19.625V29.75ZM11.125 25.5H26V23.375H11.125V25.5ZM26 21.25H11.125V19.125H26V21.25ZM11.125 14.875H40.875V10.625H11.125V14.875Z" fill="#1D1D1B"/>
</g>
<defs>
<clipPath id="clip0_542_1970">
<rect width="51" height="51" fill="white" transform="translate(0.5)"/>
</clipPath>
</defs>
</svg>
