<svg width="64" height="40" viewBox="0 0 64 40" fill="none" xmlns="http://www.w3.org/2000/svg">
<mask id="mask0_1232_1219" style="mask-type:luminance" maskUnits="userSpaceOnUse" x="0" y="6" width="64" height="34">
<path d="M0 6.5979H64V40H0V6.5979Z" fill="white"/>
</mask>
<g mask="url(#mask0_1232_1219)">
<path d="M6.72266 6.71777H57.2762C58.1942 6.71777 59.0784 6.92843 59.8915 7.30786C60.7209 7.69659 61.4617 8.25525 62.0752 8.94427L62.0787 8.94776C62.6842 9.62863 63.1729 10.441 63.5066 11.3407C63.8239 12.1973 64 13.1319 64 14.1049V32.614C64 33.5858 63.8239 34.5204 63.5066 35.3782C63.1729 36.2779 62.6842 37.0903 62.0787 37.7711L62.0752 37.7746C61.4617 38.4625 60.7209 39.0223 59.8915 39.4099C59.0784 39.7893 58.1942 40 57.2762 40H6.72266C5.80461 40 4.92155 39.7893 4.10732 39.4099C3.27909 39.0223 2.53718 38.4625 1.92476 37.7746L1.92126 37.7711C1.31584 37.0903 0.825897 36.2779 0.493438 35.3782C0.176145 34.5204 0 33.5858 0 32.614V14.1049C0 13.1319 0.176145 12.1973 0.492272 11.3395C0.825897 10.4398 1.31467 9.62746 1.92126 8.9466L1.92359 8.94427V8.9431C2.53602 8.25525 3.27792 7.69659 4.10732 7.30786C4.92038 6.92843 5.80461 6.71777 6.72266 6.71777ZM57.2762 9.38421H6.72266C6.19073 9.38421 5.68679 9.50176 5.23301 9.71475C4.74424 9.94287 4.2963 10.2851 3.91484 10.7145L3.91134 10.7168C3.52173 11.1545 3.20793 11.677 2.99329 12.2567C2.78332 12.8235 2.66783 13.4485 2.66783 14.1049V32.614C2.66783 33.2693 2.78332 33.8943 2.99329 34.4611C3.2091 35.0407 3.52289 35.5633 3.91134 35.9997L3.89968 36.0114L3.90201 36.0148L3.91484 36.0032C4.29746 36.4327 4.74424 36.7749 5.23301 37.0041C5.68796 37.216 6.19073 37.3335 6.72266 37.3335H57.2762C57.8081 37.3335 58.312 37.216 58.767 37.0041C59.2546 36.7749 59.7025 36.4327 60.0852 36.0032L60.0968 36.0148L60.1003 36.0114L60.0875 35.9997C60.4771 35.5633 60.7909 35.0407 61.0055 34.4611C61.2155 33.8943 61.3322 33.2693 61.3322 32.614V14.1049C61.3322 13.4496 61.2155 12.8246 61.0055 12.2578C60.7909 11.6782 60.4771 11.1556 60.0875 10.718L60.1003 10.7075L60.0968 10.704L60.0852 10.7145C59.7025 10.2851 59.2546 9.94287 58.767 9.71475C58.312 9.50176 57.8081 9.38421 57.2762 9.38421Z" fill="#1D1D1B"/>
</g>
<mask id="mask1_1232_1219" style="mask-type:luminance" maskUnits="userSpaceOnUse" x="1" y="0" width="62" height="3">
<path d="M1.12915 0H62.9454V2.85382H1.12915V0Z" fill="white"/>
</mask>
<g mask="url(#mask1_1232_1219)">
<path d="M62.7855 2.66644H1.32153V0H62.7855V2.66644Z" fill="#1D1D1B"/>
</g>
<path d="M53.3403 1.33374V8.00042H50.6724V1.33374H53.3403ZM14.6608 1.33374V8.00042H11.9929V1.33374H14.6608Z" fill="#1D1D1B"/>
<path d="M10.7645 19.1841H13.7881V17.514H8.92725V29.2051H10.7645V24.3773H13.1372V22.7083H10.7645V19.1841ZM16.3615 20.2025C16.3638 19.7882 16.4501 19.4926 16.617 19.3122C16.7873 19.1341 17.0194 19.0445 17.3145 19.0503C17.6097 19.0445 17.8406 19.1341 18.0098 19.3122C18.1766 19.4926 18.2629 19.7882 18.2664 20.2025V26.5166C18.2629 26.9309 18.1766 27.2254 18.0098 27.4069C17.8406 27.585 17.6097 27.6734 17.3145 27.6688C17.0194 27.6734 16.7873 27.585 16.617 27.4069C16.4501 27.2254 16.3638 26.9309 16.3615 26.5166V20.2025ZM14.5242 26.399C14.5242 27.0252 14.6327 27.5547 14.8462 27.9912C15.0608 28.4288 15.3734 28.7617 15.7876 28.9933C16.2028 29.2214 16.7126 29.3355 17.3145 29.3389C17.9153 29.3355 18.4251 29.2214 18.8392 28.9933C19.2545 28.7617 19.5659 28.4288 19.7806 27.9912C19.9952 27.5547 20.1048 27.0252 20.1048 26.399V20.3201C20.1048 19.6927 19.9952 19.1609 19.7806 18.7244C19.5659 18.2879 19.2545 17.9562 18.8392 17.7246C18.4251 17.4977 17.9153 17.3825 17.3145 17.3801C16.7126 17.3825 16.2028 17.4977 15.7876 17.7246C15.3734 17.9562 15.0608 18.2879 14.8462 18.7244C14.6327 19.1609 14.5242 19.6927 14.5242 20.3201V26.399ZM27.0048 29.2051C26.915 28.991 26.859 28.771 26.8345 28.5452C26.8123 28.3206 26.8007 28.0668 26.803 27.7852V25.9812C26.8065 25.575 26.768 25.2084 26.6922 24.879C26.614 24.5531 26.4857 24.2726 26.3084 24.0387C26.1299 23.8047 25.8873 23.6208 25.584 23.4928C25.9934 23.3008 26.2944 23.0086 26.4916 22.6129C26.6899 22.2207 26.7867 21.7225 26.7867 21.1208V20.2025C26.7902 19.602 26.6945 19.1003 26.5032 18.7023C26.3142 18.3042 26.0191 18.0063 25.6178 17.8096C25.2142 17.6106 24.6963 17.514 24.064 17.514H21.29V29.2051H23.1285V24.4449H23.7631C24.0419 24.4425 24.2693 24.4926 24.4455 24.5892C24.6228 24.6869 24.7546 24.8452 24.8398 25.0629C24.9249 25.2828 24.9657 25.5726 24.9657 25.9311V27.7689C24.9657 28.0051 24.9716 28.1995 24.9774 28.3531C24.9856 28.5068 24.9961 28.6313 25.0136 28.7314C25.0264 28.8292 25.0439 28.9153 25.0661 28.9886C25.0859 29.0596 25.1081 29.1329 25.1337 29.2051H27.0048ZM24.0127 19.1841C24.337 19.1806 24.5761 19.2784 24.7266 19.4704C24.8771 19.6648 24.9517 19.9721 24.9482 20.3864V21.5387C24.9482 21.8471 24.9051 22.0927 24.8153 22.2742C24.7266 22.4546 24.6006 22.585 24.4361 22.663C24.2728 22.7386 24.0745 22.777 23.8459 22.7747H23.1285V19.1841H24.0127ZM30.3621 20.3201C30.3656 20.7961 30.4321 21.2186 30.5604 21.5887C30.691 21.96 30.8613 22.2928 31.076 22.5885C31.2871 22.8829 31.5204 23.1564 31.7771 23.4043C32.0302 23.6511 32.2868 23.8908 32.54 24.119C32.7966 24.3471 33.0299 24.581 33.241 24.8208C33.4557 25.0571 33.626 25.3166 33.7566 25.5913C33.885 25.8671 33.9515 26.1732 33.955 26.5166C33.955 26.7912 33.9153 27.0147 33.8383 27.1811C33.7601 27.3487 33.6517 27.4686 33.5093 27.5431C33.367 27.6152 33.1967 27.6548 33.0019 27.6525C32.8071 27.6548 32.638 27.6176 32.4956 27.5431C32.3533 27.4686 32.2448 27.3487 32.1667 27.1811C32.0885 27.0147 32.05 26.7947 32.05 26.5166V25.6809H30.3119V26.399C30.3119 27.0252 30.4157 27.5547 30.621 27.9912C30.8275 28.4288 31.1343 28.7617 31.5403 28.9933C31.9462 29.2214 32.4513 29.3355 33.0521 29.3389C33.654 29.3355 34.1579 29.2214 34.5639 28.9933C34.971 28.7617 35.2778 28.4288 35.4831 27.9912C35.6896 27.5547 35.7922 27.0252 35.7922 26.399C35.7899 25.923 35.7222 25.5005 35.5939 25.1304C35.4644 24.7591 35.2941 24.4251 35.0795 24.1306C34.8672 23.835 34.6339 23.5626 34.3784 23.3147C34.1241 23.0668 33.8686 22.8271 33.6143 22.6001C33.3577 22.3708 33.1244 22.1369 32.9132 21.8983C32.6986 21.6609 32.5283 21.4025 32.3988 21.1266C32.2705 20.8508 32.2028 20.5424 32.2005 20.2025C32.2028 19.7882 32.281 19.4926 32.4396 19.3122C32.5983 19.1341 32.8246 19.0445 33.1186 19.0503C33.4137 19.0445 33.64 19.1341 33.7986 19.3122C33.9573 19.4926 34.0354 19.7882 34.0378 20.2025V20.6867H35.7759V20.3201C35.7759 19.6927 35.6721 19.1609 35.4726 18.7244C35.2685 18.2879 34.9652 17.9562 34.5639 17.7246C34.1638 17.4977 33.6645 17.3825 33.0696 17.3801C32.4735 17.3825 31.9742 17.4977 31.5741 17.7246C31.1728 17.9562 30.8695 18.2879 30.6654 18.7244C30.4659 19.1609 30.3621 19.6927 30.3621 20.3201ZM40.9214 17.514H38.2314L36.3603 29.2051H38.0483L38.3656 27.0834H40.6205L40.9377 29.2051H42.7925L40.9214 17.514ZM39.4854 19.5845L40.3697 25.497H38.6L39.4854 19.5845ZM43.6452 29.2051H48.5073V27.5349H45.4825V17.514H43.6452V29.2051ZM51.1471 19.1841H54.3212V17.514H49.3087V29.2051H54.3212V27.5349H51.1471V24.1108H53.6692V22.4407H51.1471V19.1841Z" fill="#1D1D1B"/>
</svg>
