<svg width="20" height="13" viewBox="0 0 20 13" fill="none" xmlns="http://www.w3.org/2000/svg">
<path d="M0 12.8643V7.40971C0 7.0868 0.0948149 6.7428 0.284445 6.37771C0.474074 6.01262 0.74963 5.73844 1.11111 5.55517V3.04608C1.11111 2.4308 1.32482 1.91335 1.75222 1.49371C2.17963 1.07408 2.70667 0.864258 3.33333 0.864258H8.33333C8.7163 0.864258 9.04333 0.941712 9.31445 1.09662C9.58482 1.2508 9.81333 1.46426 10 1.73699C10.1867 1.46426 10.4152 1.2508 10.6856 1.09662C10.9567 0.941712 11.2837 0.864258 11.6667 0.864258H16.6667C17.2933 0.864258 17.8204 1.07408 18.2478 1.49371C18.6752 1.91335 18.8889 2.4308 18.8889 3.04608V5.55517C19.2511 5.73844 19.5267 6.01262 19.7156 6.37771C19.9052 6.7428 20 7.0868 20 7.40971V12.8643H18.8889V10.6824H1.11111V12.8643H0ZM10.5556 5.22789H17.7778V3.04608C17.7778 2.73699 17.6711 2.47808 17.4578 2.26935C17.2444 2.06062 16.9807 1.95589 16.6667 1.95517H11.6667C11.3519 1.95517 11.0881 2.05989 10.8756 2.26935C10.663 2.4788 10.5563 2.73771 10.5556 3.04608V5.22789ZM2.22222 5.22789H9.44444V3.04608C9.44444 2.73699 9.33778 2.47808 9.12444 2.26935C8.91111 2.06062 8.64741 1.95589 8.33333 1.95517H3.33333C3.01852 1.95517 2.75482 2.05989 2.54222 2.26935C2.32963 2.4788 2.22296 2.73771 2.22222 3.04608V5.22789ZM1.11111 9.59153H18.8889V7.40971C18.8889 7.10062 18.7822 6.84171 18.5689 6.63299C18.3556 6.42426 18.0919 6.31953 17.7778 6.3188H2.22222C1.90741 6.3188 1.6437 6.42353 1.43111 6.63299C1.21852 6.84244 1.11185 7.10135 1.11111 7.40971V9.59153Z" fill="#1D1D1B"/>
</svg>
