<svg width="17" height="19" viewBox="0 0 17 19" fill="none" xmlns="http://www.w3.org/2000/svg">
<path d="M15.9072 4.56792L15.9171 4.55807L12.2529 0.893867L11.2088 1.93797L13.2871 4.01632C12.3612 4.37092 11.7013 5.25742 11.7013 6.31137C11.7013 6.63475 11.765 6.95496 11.8887 7.25373C12.0125 7.55249 12.1939 7.82395 12.4225 8.05262C12.8843 8.51443 13.5107 8.77387 14.1638 8.77387C14.5184 8.77387 14.8434 8.69507 15.1488 8.56702V15.6689C15.1488 15.9301 15.045 16.1806 14.8603 16.3654C14.6756 16.5501 14.425 16.6539 14.1638 16.6539C13.9025 16.6539 13.652 16.5501 13.4673 16.3654C13.2826 16.1806 13.1788 15.9301 13.1788 15.6689V11.2364C13.1788 10.7139 12.9712 10.2128 12.6018 9.84337C12.2323 9.47392 11.7313 9.26637 11.2088 9.26637H10.2238V2.37137C10.2238 1.84889 10.0162 1.34781 9.64678 0.978367C9.27733 0.60892 8.77625 0.401367 8.25378 0.401367H2.34378C1.8213 0.401367 1.32023 0.60892 0.950779 0.978367C0.581332 1.34781 0.373779 1.84889 0.373779 2.37137V18.1314H10.2238V10.7439H11.7013V15.6689C11.7013 16.322 11.9607 16.9483 12.4225 17.4101C12.8843 17.8719 13.5107 18.1314 14.1638 18.1314C14.4872 18.1314 14.8074 18.0677 15.1061 17.9439C15.4049 17.8202 15.6764 17.6388 15.905 17.4101C16.1337 17.1815 16.3151 16.91 16.4388 16.6112C16.5626 16.3125 16.6263 15.9922 16.6263 15.6689V6.31137C16.6263 5.63172 16.3505 5.01117 15.9072 4.56792ZM8.25378 10.7439V16.1614H2.34378V9.26637H8.25378V10.7439ZM8.25378 7.29637H2.34378V2.37137H8.25378V7.29637ZM14.1638 7.29637C13.9025 7.29637 13.652 7.19259 13.4673 7.00787C13.2826 6.82314 13.1788 6.57261 13.1788 6.31137C13.1788 6.05013 13.2826 5.79959 13.4673 5.61487C13.652 5.43014 13.9025 5.32637 14.1638 5.32637C14.425 5.32637 14.6756 5.43014 14.8603 5.61487C15.045 5.79959 15.1488 6.05013 15.1488 6.31137C15.1488 6.57261 15.045 6.82314 14.8603 7.00787C14.6756 7.19259 14.425 7.29637 14.1638 7.29637Z" fill="black"/>
</svg>
