<svg width="17" height="19" viewBox="0 0 17 19" fill="none" xmlns="http://www.w3.org/2000/svg">
<path d="M9.86422 13.1992V10.9596C9.86422 10.7787 9.79237 10.6053 9.66447 10.4774C9.53658 10.3495 9.36311 10.2776 9.18224 10.2776H7.81829C7.63742 10.2776 7.46396 10.3495 7.33606 10.4774C7.20817 10.6053 7.13632 10.7787 7.13632 10.9596V13.1979C6.09981 13.4629 5.16442 14.0276 4.44708 14.8214C3.72974 15.6152 3.26227 16.6027 3.10311 17.6607C3.08756 17.7593 3.09354 17.8601 3.12064 17.9562C3.14775 18.0523 3.19533 18.1414 3.26013 18.2173C3.32493 18.2933 3.4054 18.3543 3.49602 18.3962C3.58664 18.438 3.68526 18.4598 3.78509 18.46H13.2264C13.3262 18.4598 13.4248 18.438 13.5154 18.3962C13.606 18.3543 13.6865 18.2933 13.7513 18.2173C13.8161 18.1414 13.8637 18.0523 13.8908 17.9562C13.9179 17.8601 13.9239 17.7593 13.9083 17.6607C13.7481 16.6016 13.2789 15.6133 12.5595 14.8197C11.8402 14.026 10.9026 13.4623 9.86422 13.1992ZM16.1916 7.93028L12.7817 1.11052C12.7256 0.996623 12.6388 0.900653 12.5311 0.833421C12.4233 0.766188 12.299 0.730364 12.172 0.72998H4.82851C4.7022 0.730237 4.57844 0.76557 4.47103 0.832039C4.36362 0.898508 4.27678 0.993502 4.22019 1.10643L0.81031 7.92619C0.758362 8.02985 0.733702 8.14505 0.738661 8.26089C0.74362 8.37674 0.778035 8.4894 0.838652 8.58825C0.899269 8.68709 0.984088 8.76885 1.08509 8.82579C1.1861 8.88274 1.29996 8.91299 1.4159 8.91369H12.5921V10.9596C12.5921 11.1405 12.664 11.3139 12.7919 11.4418C12.9198 11.5697 13.0932 11.6416 13.2741 11.6416C13.455 11.6416 13.6284 11.5697 13.7563 11.4418C13.8842 11.3139 13.9561 11.1405 13.9561 10.9596V8.91369H15.5846C15.7001 8.91288 15.8135 8.88274 15.9142 8.82611C16.0149 8.76948 16.0995 8.68821 16.1602 8.58991C16.2209 8.49162 16.2556 8.37953 16.2611 8.26415C16.2665 8.14877 16.2426 8.03389 16.1916 7.93028Z" fill="black"/>
</svg>
