<svg width="22" height="19" viewBox="0 0 22 19" fill="none" xmlns="http://www.w3.org/2000/svg">
<path fill-rule="evenodd" clip-rule="evenodd" d="M3.00003 1.63961C2.66851 1.63961 2.35057 1.7482 2.11615 1.94148C1.88173 2.13477 1.75003 2.39691 1.75003 2.67026C1.75003 2.9436 1.88173 3.20575 2.11615 3.39903C2.35057 3.59231 2.66851 3.7009 3.00003 3.7009C3.33155 3.7009 3.64949 3.59231 3.88391 3.39903C4.11833 3.20575 4.25003 2.9436 4.25003 2.67026C4.25003 2.39691 4.11833 2.13477 3.88391 1.94148C3.64949 1.7482 3.33155 1.63961 3.00003 1.63961ZM0.25003 2.67026C0.250076 2.24845 0.392823 1.83502 0.662224 1.47644C0.931624 1.11785 1.317 0.82834 1.77502 0.640443C2.23303 0.452545 2.74554 0.373713 3.25492 0.412809C3.7643 0.451906 4.25035 0.60738 4.65844 0.861754C5.06653 1.11613 5.38047 1.45931 5.56497 1.85273C5.74946 2.24615 5.79721 2.67421 5.70283 3.08877C5.60844 3.50334 5.37568 3.88798 5.03071 4.19945C4.68573 4.51093 4.24222 4.73688 3.75003 4.85192V8.64798H10.25V4.85192C9.61116 4.70266 9.05933 4.3679 8.69637 3.90944C8.33341 3.45097 8.18382 2.89973 8.27521 2.35744C8.36659 1.81515 8.69278 1.31842 9.19359 0.958909C9.69439 0.599396 10.336 0.401367 11 0.401367C11.6641 0.401367 12.3057 0.599396 12.8065 0.958909C13.3073 1.31842 13.6335 1.81515 13.7249 2.35744C13.8162 2.89973 13.6666 3.45097 13.3037 3.90944C12.9407 4.3679 12.3889 4.70266 11.75 4.85192V8.64798H15C15.964 8.64798 16.612 8.64633 17.095 8.59356C17.556 8.54162 17.754 8.4534 17.884 8.34621C18.014 8.23902 18.121 8.07577 18.184 7.69484C18.248 7.29743 18.25 6.76314 18.25 5.96831V4.85192C17.6112 4.70266 17.0593 4.3679 16.6964 3.90944C16.3334 3.45097 16.1838 2.89973 16.2752 2.35744C16.3666 1.81515 16.6928 1.31842 17.1936 0.958909C17.6944 0.599396 18.336 0.401367 19 0.401367C19.6641 0.401367 20.3057 0.599396 20.8065 0.958909C21.3073 1.31842 21.6335 1.81515 21.7249 2.35744C21.8162 2.89973 21.6666 3.45097 21.3037 3.90944C20.9407 4.3679 20.3889 4.70266 19.75 4.85192V6.01119C19.75 6.7516 19.75 7.36999 19.67 7.85975C19.586 8.37754 19.4 8.84504 18.944 9.22019C18.489 9.59617 17.922 9.74953 17.294 9.81879C16.7 9.88475 15.951 9.88475 15.052 9.88475H11.75V13.6808C12.3889 13.8301 12.9407 14.1648 13.3037 14.6233C13.6666 15.0818 13.8162 15.633 13.7249 16.1753C13.6335 16.7176 13.3073 17.2143 12.8065 17.5738C12.3057 17.9333 11.6641 18.1314 11 18.1314C10.336 18.1314 9.69439 17.9333 9.19359 17.5738C8.69278 17.2143 8.36659 16.7176 8.27521 16.1753C8.18382 15.633 8.33341 15.0818 8.69637 14.6233C9.05933 14.1648 9.61116 13.8301 10.25 13.6808V9.88475H3.75003V13.6808C4.3889 13.8301 4.94073 14.1648 5.30369 14.6233C5.66665 15.0818 5.81624 15.633 5.72485 16.1753C5.63347 16.7176 5.30728 17.2143 4.80647 17.5738C4.30567 17.9333 3.66405 18.1314 3.00003 18.1314C2.33601 18.1314 1.69439 17.9333 1.19359 17.5738C0.692784 17.2143 0.366592 16.7176 0.275207 16.1753C0.183822 15.633 0.333411 15.0818 0.69637 14.6233C1.05933 14.1648 1.61116 13.8301 2.25003 13.6808V4.85192C1.6741 4.71731 1.16717 4.43143 0.806214 4.03768C0.445254 3.64393 0.249976 3.16383 0.25003 2.67026ZM11 1.63961C10.6685 1.63961 10.3506 1.7482 10.1161 1.94148C9.88173 2.13477 9.75003 2.39691 9.75003 2.67026C9.75003 2.9436 9.88173 3.20575 10.1161 3.39903C10.3506 3.59231 10.6685 3.7009 11 3.7009C11.3316 3.7009 11.6495 3.59231 11.8839 3.39903C12.1183 3.20575 12.25 2.9436 12.25 2.67026C12.25 2.39691 12.1183 2.13477 11.8839 1.94148C11.6495 1.7482 11.3316 1.63961 11 1.63961ZM19 1.63961C18.6685 1.63961 18.3506 1.7482 18.1161 1.94148C17.8817 2.13477 17.75 2.39691 17.75 2.67026C17.75 2.9436 17.8817 3.20575 18.1161 3.39903C18.3506 3.59231 18.6685 3.7009 19 3.7009C19.3316 3.7009 19.6495 3.59231 19.8839 3.39903C20.1183 3.20575 20.25 2.9436 20.25 2.67026C20.25 2.39691 20.1183 2.13477 19.8839 1.94148C19.6495 1.7482 19.3316 1.63961 19 1.63961ZM16.25 11.7399C16.25 11.5759 16.329 11.4186 16.4697 11.3026C16.6104 11.1867 16.8011 11.1215 17 11.1215H19.286C20.661 11.1215 21.75 12.0565 21.75 13.1828C21.7521 13.6067 21.5957 14.0208 21.302 14.3687C21.0084 14.7166 20.5918 14.9814 20.109 15.127L21.639 17.1883C21.6905 17.2575 21.7249 17.3345 21.7404 17.4147C21.7558 17.4949 21.7519 17.5768 21.7289 17.6558C21.7059 17.7348 21.6643 17.8092 21.6064 17.875C21.5485 17.9407 21.4755 17.9963 21.3915 18.0388C21.3076 18.0812 21.2143 18.1096 21.117 18.1223C21.0197 18.135 20.9203 18.1318 20.8245 18.1129C20.7287 18.0939 20.6384 18.0596 20.5587 18.0119C20.479 17.9642 20.4115 17.904 20.36 17.8347L18.437 15.2441H17.75V17.5115C17.75 17.6755 17.671 17.8328 17.5304 17.9488C17.3897 18.0647 17.1989 18.1299 17 18.1299C16.8011 18.1299 16.6104 18.0647 16.4697 17.9488C16.329 17.8328 16.25 17.6755 16.25 17.5115V11.7399ZM17.75 14.0073H19.286C19.804 14.0073 20.25 13.6503 20.25 13.1828C20.25 12.7153 19.804 12.3583 19.286 12.3583H17.75V14.0073ZM3.00003 14.8318C2.66851 14.8318 2.35057 14.9404 2.11615 15.1337C1.88173 15.327 1.75003 15.5891 1.75003 15.8625C1.75003 16.1358 1.88173 16.398 2.11615 16.5913C2.35057 16.7845 2.66851 16.8931 3.00003 16.8931C3.33155 16.8931 3.64949 16.7845 3.88391 16.5913C4.11833 16.398 4.25003 16.1358 4.25003 15.8625C4.25003 15.5891 4.11833 15.327 3.88391 15.1337C3.64949 14.9404 3.33155 14.8318 3.00003 14.8318ZM11 14.8318C10.6685 14.8318 10.3506 14.9404 10.1161 15.1337C9.88173 15.327 9.75003 15.5891 9.75003 15.8625C9.75003 16.1358 9.88173 16.398 10.1161 16.5913C10.3506 16.7845 10.6685 16.8931 11 16.8931C11.3316 16.8931 11.6495 16.7845 11.8839 16.5913C12.1183 16.398 12.25 16.1358 12.25 15.8625C12.25 15.5891 12.1183 15.327 11.8839 15.1337C11.6495 14.9404 11.3316 14.8318 11 14.8318Z" fill="black"/>
</svg>
