<svg width="30" height="30" viewBox="0 0 30 30" fill="none" xmlns="http://www.w3.org/2000/svg">
<path d="M15 1.00006L15.65 0.240065C15.4688 0.0851362 15.2383 0 15 0C14.7616 0 14.5311 0.0851362 14.35 0.240065L15 1.00006ZM0.999998 13L0.349999 12.24L0 12.54V13H0.999998ZM11 29V30C11.2652 30 11.5195 29.8946 11.7071 29.7071C11.8946 29.5196 12 29.2652 12 29H11ZM19 29H18C18 29.2652 18.1053 29.5196 18.2929 29.7071C18.4804 29.8946 18.7347 30 19 30V29ZM28.9999 13H29.9999V12.54L29.6499 12.24L28.9999 13ZM2.99999 30H11V28H2.99999V30ZM29.6499 12.24L15.65 0.240065L14.35 1.76006L28.3499 13.76L29.6499 12.24ZM14.35 0.240065L0.349999 12.24L1.65 13.76L15.65 1.76006L14.35 0.240065ZM12 29V23H9.99998V29H12ZM18 23V29H20V23H18ZM19 30H26.9999V28H19V30ZM29.9999 27V13H27.9999V27H29.9999ZM0 13V27H2V13H0ZM15 20C15.7956 20 16.5587 20.3161 17.1213 20.8787C17.6839 21.4413 18 22.2044 18 23H20C20 21.6739 19.4732 20.4022 18.5355 19.4645C17.5978 18.5268 16.326 18 15 18V20ZM15 18C13.6739 18 12.4021 18.5268 11.4644 19.4645C10.5268 20.4022 9.99998 21.6739 9.99998 23H12C12 22.2044 12.316 21.4413 12.8787 20.8787C13.4413 20.3161 14.2043 20 15 20V18ZM26.9999 30C27.7956 30 28.5587 29.6839 29.1213 29.1213C29.6839 28.5587 29.9999 27.7957 29.9999 27H27.9999C27.9999 27.2652 27.8946 27.5196 27.707 27.7071C27.5195 27.8946 27.2652 28 26.9999 28V30ZM2.99999 28C2.73478 28 2.48042 27.8946 2.29289 27.7071C2.10535 27.5196 2 27.2652 2 27H0C0 27.7957 0.31607 28.5587 0.878678 29.1213C1.44129 29.6839 2.20435 30 2.99999 30V28Z" fill="#FFED00"/>
</svg>
