<svg width="29" height="36" viewBox="0 0 29 36" fill="none" xmlns="http://www.w3.org/2000/svg">
<path d="M6.884 10V4.77H8.884V10H6.884ZM6.884 26.232V17.538H8.884V26.232H6.884ZM3.732 36C2.836 36 2.07333 35.6853 1.444 35.056C0.814667 34.4267 0.5 33.6647 0.5 32.77V3.23C0.5 2.33667 0.814667 1.57467 1.444 0.944C2.07333 0.314666 2.836 0 3.732 0H25.27C26.1633 0 26.9253 0.314666 27.556 0.944C28.1853 1.57333 28.5 2.336 28.5 3.232V32.77C28.5 33.6633 28.1853 34.4253 27.556 35.056C26.9267 35.6853 26.1647 36 25.27 36H3.732ZM3.732 34H25.27C25.6287 34 25.9233 33.8847 26.154 33.654C26.3847 33.4233 26.5 33.1287 26.5 32.77V14.77H2.5V32.77C2.5 33.1287 2.61533 33.4233 2.846 33.654C3.07667 33.8847 3.372 34 3.732 34ZM2.5 12.77H26.5V3.23C26.5 2.87133 26.3847 2.57667 26.154 2.346C25.9233 2.11533 25.6287 2 25.27 2H3.73C3.37133 2 3.07667 2.11533 2.846 2.346C2.61533 2.57667 2.5 2.872 2.5 3.232V12.77Z" fill="#1D1D1B"/>
</svg>
