<svg width="41" height="38" viewBox="0 0 41 38" fill="none" xmlns="http://www.w3.org/2000/svg">
<path d="M6.74412 22.5403L10.4464 19.9123C11.4444 19.1944 12.5658 18.6659 13.7547 18.353C15.1416 17.9835 15.7631 17.2256 15.7631 15.6094C15.7631 11.5073 25.2368 11.0715 25.2368 15.6094C25.2368 17.2256 25.8583 17.9835 27.2452 18.3511C28.4617 18.677 29.5189 19.1753 30.5534 19.9123L34.2558 22.5384C35.9288 23.7283 36.7095 24.3025 37.1434 25.2176C37.5526 26.0778 37.5526 27.0858 37.5526 29.1018C37.5526 32.7284 37.5526 34.5416 36.537 35.7031C35.3074 37.1109 32.1109 36.9915 30.148 36.9915H10.8519C8.88897 36.9915 5.75696 37.1867 4.46285 35.7031C3.44727 34.5416 3.44727 32.7284 3.44727 29.1018C3.44727 27.0858 3.44727 26.0778 3.85653 25.2176C4.29232 24.3043 5.06916 23.7283 6.74412 22.5384" stroke="#1D1D1B" stroke-width="2" stroke-linecap="round" stroke-linejoin="round"/>
<path d="M10.9505 2.32158C8.45322 3.03401 6.657 3.91885 5.01236 4.98749C2.41088 6.6776 1.29488 9.72245 1.60183 12.6612C1.73067 13.9041 2.7292 14.4991 3.88499 14.177C4.76415 13.9307 5.64331 13.6938 6.51679 13.4361C9.06901 12.6782 9.66964 11.7574 10.024 9.14455L10.9505 2.32158ZM10.9505 2.32158C17.1255 0.559472 23.8745 0.559472 30.0495 2.32158M30.0495 2.32158C32.5468 3.03401 34.343 3.91885 35.9876 4.98749C38.5891 6.6776 39.7051 9.72245 39.3982 12.6612C39.2693 13.9041 38.2708 14.4991 37.115 14.177C36.2377 13.9307 35.3567 13.6938 34.4832 13.4361C31.931 12.6782 31.3303 11.7574 30.976 9.14455L30.0495 2.32158ZM24.2895 27.5254C24.2895 28.5305 23.8902 29.4943 23.1796 30.205C22.4689 30.9157 21.505 31.3149 20.5 31.3149C19.495 31.3149 18.5311 30.9157 17.8204 30.205C17.1098 29.4943 16.7105 28.5305 16.7105 27.5254C16.7105 26.5204 17.1098 25.5565 17.8204 24.8459C18.5311 24.1352 19.495 23.736 20.5 23.736C21.505 23.736 22.4689 24.1352 23.1796 24.8459C23.8902 25.5565 24.2895 26.5204 24.2895 27.5254Z" stroke="#1D1D1B" stroke-width="2" stroke-linecap="round" stroke-linejoin="round"/>
</svg>
