<svg width="32" height="36" viewBox="0 0 32 36" fill="none" xmlns="http://www.w3.org/2000/svg">
<path d="M10 17.54C9.58667 17.54 9.22667 17.3867 8.92 17.08C8.61333 16.7733 8.46 16.4133 8.46 16C8.46 15.5867 8.61333 15.2267 8.92 14.92C9.22667 14.6133 9.58667 14.46 10 14.46C10.4133 14.46 10.7733 14.6133 11.08 14.92C11.3867 15.2267 11.54 15.5867 11.54 16C11.54 16.4133 11.3867 16.7733 11.08 17.08C10.7733 17.3867 10.4133 17.54 10 17.54ZM22 17.54C21.5867 17.54 21.2267 17.3867 20.92 17.08C20.6133 16.7733 20.46 16.4133 20.46 16C20.46 15.5867 20.6133 15.2267 20.92 14.92C21.2267 14.6133 21.5867 14.46 22 14.46C22.4133 14.46 22.7733 14.6133 23.08 14.92C23.3867 15.2267 23.54 15.5867 23.54 16C23.54 16.4133 23.3867 16.7733 23.08 17.08C22.7733 17.3867 22.4133 17.54 22 17.54ZM3.232 36C2.336 36 1.57333 35.6853 0.944 35.056C0.314667 34.4267 0 33.6647 0 32.77V24.846C0 24.3847 0.139334 23.98 0.418 23.632C0.695334 23.2853 1.06867 23.0653 1.538 22.972H2V14C2 12.056 2.36533 10.2373 3.096 8.544C3.82667 6.85067 4.82733 5.36867 6.098 4.098C7.36867 2.82733 8.85733 1.82667 10.564 1.096C12.2707 0.365334 14.0827 0 16 0C17.944 0 19.7627 0.365334 21.456 1.096C23.1493 1.82667 24.6313 2.82733 25.902 4.098C27.1727 5.36867 28.1733 6.85067 28.904 8.544C29.6347 10.2373 30 12.056 30 14V22.974H30.424C30.8933 23.066 31.2733 23.286 31.564 23.634C31.8547 23.9807 32 24.3847 32 24.846V32.77C32 33.6633 31.6853 34.4253 31.056 35.056C30.4267 35.6853 29.6647 36 28.77 36H3.232ZM2 24.846V32.77C2 33.1287 2.11533 33.4233 2.346 33.654C2.57667 33.8847 2.872 34 3.232 34H7V24.846H2ZM9 34H15V24.846H9V34ZM4 22.846H15V2.074C12.16 2.23267 9.61667 3.42 7.37 5.636C5.12333 7.85333 4 10.6413 4 14V22.846ZM17 22.846H28V14C28 10.64 26.8773 7.852 24.632 5.636C22.384 3.42 19.84 2.23267 17 2.074V22.846ZM17 34H23V24.846H17V34ZM25 34H28.77C29.1287 34 29.4233 33.8847 29.654 33.654C29.8847 33.4233 30 33.1287 30 32.77V24.846H25V34Z" fill="#1D1D1B"/>
</svg>
