<svg width="31" height="38" viewBox="0 0 31 38" fill="none" xmlns="http://www.w3.org/2000/svg">
<path d="M28.3576 1.0035H14.6662C14.0985 1.00353 13.554 1.23075 13.1523 1.63524L10.8011 4.00741L8.44982 1.63524C8.25079 1.43389 8.01429 1.27413 7.75388 1.16512C7.49348 1.05611 7.21429 1 6.93232 1C6.65036 1 6.37117 1.05611 6.11076 1.16512C5.85035 1.27413 5.61385 1.43389 5.41482 1.63524L1.13011 5.95482C0.930389 6.15547 0.771918 6.3939 0.663789 6.65642C0.55566 6.91895 0.5 7.20041 0.5 7.48467C0.5 7.76893 0.55566 8.05039 0.663789 8.31292C0.771918 8.57545 0.930389 8.81387 1.13011 9.01452L3.4867 11.3813L1.13547 13.7517C0.93568 13.9514 0.777247 14.1892 0.669368 14.4512C0.561488 14.7132 0.506313 14.9942 0.507045 15.2779V34.8402C0.507045 35.413 0.732757 35.9624 1.13453 36.3674C1.5363 36.7724 2.08121 37 2.6494 37H28.3576C28.9258 37 29.4707 36.7724 29.8725 36.3674C30.2743 35.9624 30.5 35.413 30.5 34.8402V3.16329C30.5 2.59048 30.2743 2.04113 29.8725 1.63609C29.4707 1.23105 28.9258 1.0035 28.3576 1.0035ZM2.14416 7.99222C2.07776 7.92536 2.02509 7.84596 1.98915 7.75856C1.95322 7.67116 1.93472 7.57748 1.93472 7.48287C1.93472 7.38826 1.95322 7.29458 1.98915 7.20718C2.02509 7.11978 2.07776 7.04038 2.14416 6.97352L6.42887 2.65394C6.49519 2.58701 6.57395 2.5339 6.66064 2.49767C6.74734 2.46144 6.84026 2.4428 6.93411 2.4428C7.02795 2.4428 7.12088 2.46144 7.20757 2.49767C7.29426 2.5339 7.37302 2.58701 7.43935 2.65394L9.79058 5.02431L4.49539 10.3626L2.14416 7.99222ZM29.0718 34.8402C29.0718 35.0311 28.9965 35.2143 28.8626 35.3493C28.7287 35.4843 28.547 35.5601 28.3576 35.5601H2.6494C2.46 35.5601 2.27836 35.4843 2.14444 35.3493C2.01052 35.2143 1.93528 35.0311 1.93528 34.8402V15.2779C1.93561 15.0875 2.01071 14.9051 2.14416 14.7704L5.00063 11.8906L11.3045 5.53546L14.161 2.65574C14.2272 2.58858 14.3059 2.53525 14.3926 2.49881C14.4793 2.46237 14.5723 2.44352 14.6662 2.44336H28.3576C28.547 2.44336 28.7287 2.51921 28.8626 2.65423C28.9965 2.78924 29.0718 2.97236 29.0718 3.16329V34.8402ZM24.7871 7.48287C24.7871 7.67381 24.7118 7.85693 24.5779 7.99194C24.444 8.12695 24.2623 8.2028 24.0729 8.2028H16.9318C16.7424 8.2028 16.5607 8.12695 16.4268 7.99194C16.2929 7.85693 16.2176 7.67381 16.2176 7.48287C16.2176 7.29193 16.2929 7.10882 16.4268 6.9738C16.5607 6.83879 16.7424 6.76294 16.9318 6.76294H24.0729C24.2623 6.76294 24.444 6.83879 24.5779 6.9738C24.7118 7.10882 24.7871 7.29193 24.7871 7.48287ZM24.5014 18.1378L16.6943 24.0413L24.5014 29.9447C24.5764 30.0014 24.6396 30.0725 24.6874 30.1538C24.7352 30.2352 24.7666 30.3252 24.7799 30.4188C24.7931 30.5124 24.788 30.6077 24.7647 30.6993C24.7414 30.7909 24.7005 30.877 24.6442 30.9526C24.588 31.0282 24.5175 31.0919 24.4368 31.1401C24.3561 31.1883 24.2668 31.22 24.1739 31.2333C24.0811 31.2467 23.9866 31.2415 23.8957 31.218C23.8049 31.1946 23.7195 31.1533 23.6445 31.0966L15.5035 24.9412L7.36258 31.0966C7.21106 31.2111 7.02061 31.2603 6.83312 31.2333C6.64562 31.2063 6.47645 31.1053 6.36281 30.9526C6.24918 30.7998 6.20038 30.6078 6.22717 30.4188C6.25395 30.2298 6.35412 30.0592 6.50564 29.9447L14.3127 24.0413L6.50564 18.1378C6.43061 18.0811 6.36741 18.01 6.31963 17.9287C6.27185 17.8473 6.24043 17.7573 6.22717 17.6637C6.2139 17.5701 6.21906 17.4748 6.24233 17.3832C6.26561 17.2916 6.30655 17.2056 6.36281 17.1299C6.41908 17.0543 6.48957 16.9906 6.57027 16.9424C6.65096 16.8942 6.74028 16.8626 6.83312 16.8492C6.92595 16.8358 7.02049 16.841 7.11134 16.8645C7.20218 16.8879 7.28755 16.9292 7.36258 16.9859L15.5035 23.1413L23.6445 16.9859C23.7195 16.9292 23.8049 16.8879 23.8957 16.8645C23.9866 16.841 24.0811 16.8358 24.1739 16.8492C24.2668 16.8626 24.3561 16.8942 24.4368 16.9424C24.5175 16.9906 24.588 17.0543 24.6442 17.1299C24.7005 17.2056 24.7414 17.2916 24.7647 17.3832C24.788 17.4748 24.7931 17.5701 24.7799 17.6637C24.7666 17.7573 24.7352 17.8473 24.6874 17.9287C24.6396 18.01 24.5764 18.0811 24.5014 18.1378Z" fill="black" stroke="#1D1D1B"/>
</svg>
