<svg width="58" height="48" viewBox="0 0 58 48" fill="none" xmlns="http://www.w3.org/2000/svg">
<path d="M0.611816 24.4085C0.611816 23.5377 0.806705 22.7322 1.19648 21.992C1.58626 21.2518 2.12762 20.6422 2.82056 20.1632L15.8132 10.8236C16.2896 10.4753 16.7772 10.2245 17.2761 10.0712C17.775 9.91792 18.2835 9.84216 18.8015 9.8439C19.3194 9.84564 19.8287 9.92228 20.3294 10.0738C20.83 10.2253 21.3168 10.4753 21.7897 10.8236L34.7823 20.1632C35.4753 20.6422 36.0166 21.2518 36.4064 21.992C36.7962 22.7322 36.9911 23.5377 36.9911 24.4085V42.6307C36.9911 44.0675 36.4826 45.298 35.4658 46.3221C34.4489 47.3462 33.225 47.8574 31.794 47.8556H29.1955C27.7663 47.8556 26.5433 47.3445 25.5264 46.3221C24.5095 45.2997 24.0002 44.0693 23.9985 42.6307V36.0994C23.9985 35.0109 23.62 34.0861 22.8629 33.325C22.1059 32.5639 21.1852 32.1824 20.1007 32.1807H17.5022C16.4195 32.1807 15.4996 32.5621 14.7426 33.325C13.9855 34.0878 13.6061 35.0126 13.6044 36.0994V42.6307C13.6044 44.0675 13.096 45.298 12.0791 46.3221C11.0622 47.3462 9.83829 47.8574 8.40737 47.8556H5.80886C4.37967 47.8556 3.15663 47.3445 2.13975 46.3221C1.12286 45.2997 0.613549 44.0693 0.611816 42.6307V24.4085ZM57.7792 6.05579V42.6307C57.7792 44.0675 57.2708 45.298 56.2539 46.3221C55.237 47.3462 54.0131 47.8574 52.5822 47.8556H44.7866C44.0504 47.8556 43.4337 47.6048 42.9365 47.1032C42.4393 46.6016 42.1899 45.9816 42.1881 45.2431V21.796C42.1881 20.9252 42.0036 20.1197 41.6346 19.3795C41.2657 18.6393 40.7356 18.0297 40.0443 17.5507L26.4671 7.75391C25.9041 7.31849 25.4493 6.796 25.1029 6.18642C24.7564 5.57683 24.5832 4.96725 24.5832 4.35767C24.5832 3.26913 24.9296 2.40963 25.6226 1.77914C26.3155 1.14866 27.2466 0.832552 28.416 0.830811H52.5822C54.0114 0.830811 55.2353 1.34286 56.2539 2.36695C57.2725 3.39105 57.781 4.62066 57.7792 6.05579ZM43.4874 16.5058H46.0859C46.4324 16.5058 46.7355 16.3751 46.9954 16.1139C47.2552 15.8526 47.3852 15.5478 47.3852 15.1995V12.587C47.3852 12.2387 47.2552 11.9339 46.9954 11.6726C46.7355 11.4114 46.4324 11.2808 46.0859 11.2808H43.4874C43.1409 11.2808 42.8378 11.4114 42.5779 11.6726C42.3181 11.9339 42.1881 12.2387 42.1881 12.587V15.1995C42.1881 15.5478 42.3181 15.8526 42.5779 16.1139C42.8378 16.3751 43.1409 16.5058 43.4874 16.5058ZM43.4874 26.9557H46.0859C46.4324 26.9557 46.7355 26.8251 46.9954 26.5638C47.2552 26.3026 47.3852 25.9978 47.3852 25.6495V23.037C47.3852 22.6886 47.2552 22.3839 46.9954 22.1226C46.7355 21.8614 46.4324 21.7307 46.0859 21.7307H43.4874C43.1409 21.7307 42.8378 21.8614 42.5779 22.1226C42.3181 22.3839 42.1881 22.6886 42.1881 23.037V25.6495C42.1881 25.9978 42.3181 26.3026 42.5779 26.5638C42.8378 26.8251 43.1409 26.9557 43.4874 26.9557ZM43.4874 37.4057H46.0859C46.4324 37.4057 46.7355 37.2751 46.9954 37.0138C47.2552 36.7526 47.3852 36.4478 47.3852 36.0994V33.4869C47.3852 33.1386 47.2552 32.8338 46.9954 32.5726C46.7355 32.3113 46.4324 32.1807 46.0859 32.1807H43.4874C43.1409 32.1807 42.8378 32.3113 42.5779 32.5726C42.3181 32.8338 42.1881 33.1386 42.1881 33.4869V36.0994C42.1881 36.4478 42.3181 36.7526 42.5779 37.0138C42.8378 37.2751 43.1409 37.4057 43.4874 37.4057Z" fill="#1D1D1B"/>
</svg>
