<svg width="46" height="49" viewBox="0 0 46 49" fill="none" xmlns="http://www.w3.org/2000/svg">
<path d="M10.8167 35.2232C11.4752 35.2232 12.1068 34.9616 12.5725 34.4959C13.0382 34.0303 13.2998 33.3987 13.2998 32.7401C13.2998 32.0816 13.0382 31.45 12.5725 30.9843C12.1068 30.5186 11.4752 30.257 10.8167 30.257C10.1581 30.257 9.52653 30.5186 9.06085 30.9843C8.59518 31.45 8.33357 32.0816 8.33357 32.7401C8.33357 33.3987 8.59518 34.0303 9.06085 34.4959C9.52653 34.9616 10.1581 35.2232 10.8167 35.2232ZM13.2998 40.1894C13.2998 40.848 13.0382 41.4796 12.5725 41.9452C12.1068 42.4109 11.4752 42.6725 10.8167 42.6725C10.1581 42.6725 9.52653 42.4109 9.06085 41.9452C8.59518 41.4796 8.33357 40.848 8.33357 40.1894C8.33357 39.5308 8.59518 38.8993 9.06085 38.4336C9.52653 37.9679 10.1581 37.7063 10.8167 37.7063C11.4752 37.7063 12.1068 37.9679 12.5725 38.4336C13.0382 38.8993 13.2998 39.5308 13.2998 40.1894ZM10.8167 27.7739C11.4752 27.7739 12.1068 27.5123 12.5725 27.0466C13.0382 26.581 13.2998 25.9494 13.2998 25.2908C13.2998 24.6323 13.0382 24.0007 12.5725 23.535C12.1068 23.0693 11.4752 22.8077 10.8167 22.8077C10.1581 22.8077 9.52653 23.0693 9.06085 23.535C8.59518 24.0007 8.33357 24.6323 8.33357 25.2908C8.33357 25.9494 8.59518 26.581 9.06085 27.0466C9.52653 27.5123 10.1581 27.7739 10.8167 27.7739ZM13.2998 17.8415C13.2998 18.5001 13.0382 19.1317 12.5725 19.5973C12.1068 20.063 11.4752 20.3246 10.8167 20.3246C10.1581 20.3246 9.52653 20.063 9.06085 19.5973C8.59518 19.1317 8.33357 18.5001 8.33357 17.8415C8.33357 17.183 8.59518 16.5514 9.06085 16.0857C9.52653 15.62 10.1581 15.3584 10.8167 15.3584C11.4752 15.3584 12.1068 15.62 12.5725 16.0857C13.0382 16.5514 13.2998 17.183 13.2998 17.8415ZM10.8167 12.8753C11.4752 12.8753 12.1068 12.6137 12.5725 12.148C13.0382 11.6824 13.2998 11.0508 13.2998 10.3922C13.2998 9.73367 13.0382 9.10209 12.5725 8.63642C12.1068 8.17074 11.4752 7.90913 10.8167 7.90913C10.1581 7.90913 9.52653 8.17074 9.06085 8.63642C8.59518 9.10209 8.33357 9.73367 8.33357 10.3922C8.33357 11.0508 8.59518 11.6824 9.06085 12.148C9.52653 12.6137 10.1581 12.8753 10.8167 12.8753ZM28.1984 6.04681V7.90913H39.9931C41.4748 7.90913 42.8959 8.49776 43.9437 9.54552C44.9914 10.5933 45.58 12.0143 45.58 13.4961V47.0179C45.58 47.5118 45.3838 47.9855 45.0346 48.3348C44.6853 48.684 44.2116 48.8802 43.7177 48.8802H36.2684V42.0517C36.2684 41.7225 36.1376 41.4067 35.9048 41.1738C35.6719 40.941 35.3562 40.8102 35.0269 40.8102H28.8191C28.4899 40.8102 28.1741 40.941 27.9412 41.1738C27.7084 41.4067 27.5776 41.7225 27.5776 42.0517V48.8802H2.7466C2.25268 48.8802 1.77899 48.684 1.42974 48.3348C1.08049 47.9855 0.884277 47.5118 0.884277 47.0179V6.04681C0.884277 4.56505 1.4729 3.14398 2.52066 2.09622C3.56842 1.04846 4.98949 0.459839 6.47125 0.459839H22.6114C24.0931 0.459839 25.5142 1.04846 26.562 2.09622C27.6097 3.14398 28.1984 4.56505 28.1984 6.04681ZM6.47125 4.18449C5.97733 4.18449 5.50364 4.38069 5.15439 4.72995C4.80513 5.0792 4.60892 5.55289 4.60892 6.04681V45.1556H18.266V13.4961C18.266 12.0143 18.8546 10.5933 19.9023 9.54552C20.9501 8.49776 22.3712 7.90913 23.8529 7.90913H24.4737V6.04681C24.4737 5.55289 24.2775 5.0792 23.9282 4.72995C23.579 4.38069 23.1053 4.18449 22.6114 4.18449H6.47125ZM38.1307 32.7401C38.1307 32.0816 37.8691 31.45 37.4035 30.9843C36.9378 30.5186 36.3062 30.257 35.6477 30.257C34.9891 30.257 34.3575 30.5186 33.8918 30.9843C33.4262 31.45 33.1646 32.0816 33.1646 32.7401C33.1646 33.3987 33.4262 34.0303 33.8918 34.4959C34.3575 34.9616 34.9891 35.2232 35.6477 35.2232C36.3062 35.2232 36.9378 34.9616 37.4035 34.4959C37.8691 34.0303 38.1307 33.3987 38.1307 32.7401ZM28.1984 35.2232C28.8569 35.2232 29.4885 34.9616 29.9542 34.4959C30.4198 34.0303 30.6815 33.3987 30.6815 32.7401C30.6815 32.0816 30.4198 31.45 29.9542 30.9843C29.4885 30.5186 28.8569 30.257 28.1984 30.257C27.5398 30.257 26.9082 30.5186 26.4425 30.9843C25.9769 31.45 25.7153 32.0816 25.7153 32.7401C25.7153 33.3987 25.9769 34.0303 26.4425 34.4959C26.9082 34.9616 27.5398 35.2232 28.1984 35.2232ZM38.1307 25.2908C38.1307 24.6323 37.8691 24.0007 37.4035 23.535C36.9378 23.0693 36.3062 22.8077 35.6477 22.8077C34.9891 22.8077 34.3575 23.0693 33.8918 23.535C33.4262 24.0007 33.1646 24.6323 33.1646 25.2908C33.1646 25.9494 33.4262 26.581 33.8918 27.0466C34.3575 27.5123 34.9891 27.7739 35.6477 27.7739C36.3062 27.7739 36.9378 27.5123 37.4035 27.0466C37.8691 26.581 38.1307 25.9494 38.1307 25.2908ZM28.1984 27.7739C28.8569 27.7739 29.4885 27.5123 29.9542 27.0466C30.4198 26.581 30.6815 25.9494 30.6815 25.2908C30.6815 24.6323 30.4198 24.0007 29.9542 23.535C29.4885 23.0693 28.8569 22.8077 28.1984 22.8077C27.5398 22.8077 26.9082 23.0693 26.4425 23.535C25.9769 24.0007 25.7153 24.6323 25.7153 25.2908C25.7153 25.9494 25.9769 26.581 26.4425 27.0466C26.9082 27.5123 27.5398 27.7739 28.1984 27.7739ZM38.1307 17.8415C38.1307 17.183 37.8691 16.5514 37.4035 16.0857C36.9378 15.62 36.3062 15.3584 35.6477 15.3584C34.9891 15.3584 34.3575 15.62 33.8918 16.0857C33.4262 16.5514 33.1646 17.183 33.1646 17.8415C33.1646 18.5001 33.4262 19.1317 33.8918 19.5973C34.3575 20.063 34.9891 20.3246 35.6477 20.3246C36.3062 20.3246 36.9378 20.063 37.4035 19.5973C37.8691 19.1317 38.1307 18.5001 38.1307 17.8415ZM28.1984 20.3246C28.8569 20.3246 29.4885 20.063 29.9542 19.5973C30.4198 19.1317 30.6815 18.5001 30.6815 17.8415C30.6815 17.183 30.4198 16.5514 29.9542 16.0857C29.4885 15.62 28.8569 15.3584 28.1984 15.3584C27.5398 15.3584 26.9082 15.62 26.4425 16.0857C25.9769 16.5514 25.7153 17.183 25.7153 17.8415C25.7153 18.5001 25.9769 19.1317 26.4425 19.5973C26.9082 20.063 27.5398 20.3246 28.1984 20.3246Z" fill="#1D1D1B"/>
</svg>
