<svg width="39" height="38" viewBox="0 0 39 38" fill="none" xmlns="http://www.w3.org/2000/svg">
<path d="M14.8043 29.9565V19.7826M14.8043 19.7826V8.82609H21.8478C22.5672 8.82609 23.2796 8.96779 23.9443 9.24309C24.6089 9.5184 25.2128 9.92193 25.7215 10.4306C26.2302 10.9393 26.6338 11.5433 26.9091 12.2079C27.1844 12.8726 27.3261 13.5849 27.3261 14.3043C27.3261 15.0238 27.1844 15.7361 26.9091 16.4008C26.6338 17.0654 26.2302 17.6694 25.7215 18.1781C25.2128 18.6868 24.6089 19.0903 23.9443 19.3656C23.2796 19.6409 22.5672 19.7826 21.8478 19.7826H14.8043ZM19.5 37C9.5593 37 1.5 28.9407 1.5 19C1.5 9.0593 9.5593 1 19.5 1C29.4407 1 37.5 9.0593 37.5 19C37.5 28.9407 29.4407 37 19.5 37Z" stroke="#1D1D1B" stroke-width="2"/>
</svg>
