<svg width="35" height="38" viewBox="0 0 35 38" fill="none" xmlns="http://www.w3.org/2000/svg">
<path d="M17.5 10.3913V11.1739M17.5 10.3913C17.5 7.90058 18.4934 5.51186 20.2616 3.75065C22.0298 1.98944 24.428 1 26.9286 1H27.7143V11.1739C27.7143 13.8722 26.6381 16.46 24.7226 18.368C22.807 20.2759 20.209 21.3478 17.5 21.3478M17.5 10.3913C17.5 7.90058 16.5066 5.51186 14.7384 3.75065C12.9702 1.98944 10.572 1 8.07143 1H7.28571V11.1739C7.28571 13.8722 8.36186 16.46 10.2774 18.368C12.193 20.2759 14.791 21.3478 17.5 21.3478M17.5 21.3478V36.2174M17.5 21.3478V35.4348M17.5 37H10.4286C7.92796 37 5.52976 36.0106 3.76156 34.2494C1.99336 32.4881 1 30.0994 1 27.6087H8.07143C10.572 27.6087 12.9702 28.5981 14.7384 30.3593C16.5066 32.1206 17.5 34.5093 17.5 37ZM17.5 37H24.5714C27.072 37 29.4702 36.0106 31.2384 34.2494C33.0066 32.4881 34 30.0994 34 27.6087H26.9286C24.428 27.6087 22.0298 28.5981 20.2616 30.3593C18.4934 32.1206 17.5 34.5093 17.5 37Z" stroke="#1D1D1B" stroke-width="2"/>
</svg>
