<svg width="72" height="41" viewBox="0 0 72 41" fill="none" xmlns="http://www.w3.org/2000/svg">
<path d="M1.02175 35.054L15.1844 16.1999C15.5385 15.7279 15.9669 15.3738 16.4697 15.1377C16.9724 14.9017 17.4882 14.7837 18.0169 14.7837C18.5457 14.7837 19.0626 14.9017 19.5677 15.1377C20.0729 15.3738 20.5001 15.7279 20.8495 16.1999L32.8877 32.2215C33.2418 32.6935 33.6549 33.0476 34.1269 33.2836C34.599 33.5197 35.1301 33.6377 35.7202 33.6377C37.1955 33.6377 38.2577 32.9744 38.9068 31.6479C39.556 30.3213 39.4379 29.0667 38.5528 27.8841L31.1174 18.0588C30.6453 17.4097 30.4093 16.7015 30.4093 15.9344C30.4093 15.1673 30.6453 14.4591 31.1174 13.81L39.969 2.0373C40.3231 1.56521 40.7515 1.21114 41.2543 0.975099C41.7571 0.739054 42.2728 0.621033 42.8016 0.621033C43.3303 0.621033 43.8472 0.739054 44.3524 0.975099C44.8575 1.21114 45.2848 1.56521 45.6341 2.0373L70.4187 35.054C71.3039 36.2342 71.4219 37.4734 70.7728 38.7717C70.1237 40.0699 69.0615 40.719 67.5862 40.719H3.85428C2.379 40.719 1.3168 40.0699 0.66768 38.7717C0.0185581 37.4734 0.136581 36.2342 1.02175 35.054Z" fill="#1D1D1B"/>
</svg>
