<svg width="42" height="38" viewBox="0 0 42 38" fill="none" xmlns="http://www.w3.org/2000/svg">
<path d="M1 34.999C1.45434 35.632 2.05594 36.1448 2.75285 36.4933C3.44975 36.8417 4.22101 37.0153 5 36.9989C5.77899 37.0153 6.55025 36.8417 7.24715 36.4933C7.94406 36.1448 8.54566 35.632 9 34.999C9.45434 34.366 10.0559 33.8532 10.7528 33.5047C11.4498 33.1563 12.221 32.9827 13 32.9991C13.779 32.9827 14.5502 33.1563 15.2472 33.5047C15.9441 33.8532 16.5457 34.366 17 34.999C17.4543 35.632 18.0559 36.1448 18.7528 36.4933C19.4498 36.8417 20.221 37.0153 21 36.9989C21.779 37.0153 22.5502 36.8417 23.2472 36.4933C23.9441 36.1448 24.5457 35.632 25 34.999C25.4543 34.366 26.0559 33.8532 26.7528 33.5047C27.4498 33.1563 28.221 32.9827 29 32.9991C29.779 32.9827 30.5502 33.1563 31.2472 33.5047C31.9441 33.8532 32.5457 34.366 33 34.999C33.4543 35.632 34.0559 36.1448 34.7528 36.4933C35.4498 36.8417 36.221 37.0153 37 36.9989C37.779 37.0153 38.5502 36.8417 39.2472 36.4933C39.9441 36.1448 40.5457 35.632 41 34.999M1 26.9992C1.45434 27.6322 2.05594 28.1451 2.75285 28.4935C3.44975 28.8419 4.22101 29.0155 5 28.9992C5.77899 29.0155 6.55025 28.8419 7.24715 28.4935C7.94406 28.1451 8.54566 27.6322 9 26.9992C9.45434 26.3663 10.0559 25.8534 10.7528 25.505C11.4498 25.1565 12.221 24.983 13 24.9993C13.779 24.983 14.5502 25.1565 15.2472 25.505C15.9441 25.8534 16.5457 26.3663 17 26.9992C17.4543 27.6322 18.0559 28.1451 18.7528 28.4935C19.4498 28.8419 20.221 29.0155 21 28.9992C21.779 29.0155 22.5502 28.8419 23.2472 28.4935C23.9441 28.1451 24.5457 27.6322 25 26.9992C25.4543 26.3663 26.0559 25.8534 26.7528 25.505C27.4498 25.1565 28.221 24.983 29 24.9993C29.779 24.983 30.5502 25.1565 31.2472 25.505C31.9441 25.8534 32.5457 26.3663 33 26.9992C33.4543 27.6322 34.0559 28.1451 34.7528 28.4935C35.4498 28.8419 36.221 29.0155 37 28.9992C37.779 29.0155 38.5502 28.8419 39.2472 28.4935C39.9441 28.1451 40.5457 27.6322 41 26.9992M27 18.9995V3.99991C27 3.20429 27.3161 2.44125 27.8787 1.87865C28.4413 1.31606 29.2044 1 30 1C30.7956 1 31.5587 1.31606 32.1213 1.87865C32.6839 2.44125 33 3.20429 33 3.99991M15 18.9995V3.99991C15 3.20429 14.6839 2.44125 14.1213 1.87865C13.5587 1.31606 12.7956 1 12 1C11.2044 1 10.4413 1.31606 9.87868 1.87865C9.31607 2.44125 9 3.20429 9 3.99991M27 4.99988H15M15 14.9996H27" stroke="#1D1D1B" stroke-width="2" stroke-linecap="round" stroke-linejoin="round"/>
</svg>
