<svg width="47" height="38" viewBox="0 0 47 38" fill="none" xmlns="http://www.w3.org/2000/svg">
<path d="M45.2742 24.0403C45.0817 24.0403 44.8971 24.1161 44.7609 24.2511C44.6248 24.3861 44.5484 24.5692 44.5484 24.7601V28.359H35.7133C35.5214 28.3587 35.3374 28.283 35.2016 28.1485L31.3584 24.339L41.0082 14.7712C41.2112 14.5706 41.3722 14.3323 41.4821 14.0698C41.592 13.8073 41.6486 13.5259 41.6486 13.2417C41.6486 12.9575 41.592 12.6761 41.4821 12.4136C41.3722 12.1511 41.2112 11.9128 41.0082 11.7121L30.8467 1.63512C30.6444 1.43381 30.404 1.27408 30.1393 1.16509C29.8746 1.0561 29.5909 1 29.3043 1C29.0177 1 28.7339 1.0561 28.4693 1.16509C28.2046 1.27408 27.9642 1.43381 27.7619 1.63512L1.3184 27.956C1.16634 28.107 1.0628 28.2992 1.02087 28.5086C0.978938 28.7179 1.0005 28.9348 1.08282 29.132C1.16515 29.3292 1.30454 29.4977 1.48341 29.6164C1.66227 29.735 1.87258 29.7984 2.08778 29.7986H9.52745L16.1469 36.3649C16.3492 36.5662 16.5896 36.7259 16.8543 36.8349C17.119 36.9439 17.4027 37 17.6893 37C17.9759 37 18.2597 36.9439 18.5243 36.8349C18.789 36.7259 19.0294 36.5662 19.2317 36.3649L30.3331 25.3557L34.1745 29.1652C34.3759 29.3666 34.6157 29.5263 34.8798 29.635C35.144 29.7437 35.4273 29.7994 35.7133 29.7986H44.5484V33.3976C44.5484 33.5885 44.6248 33.7715 44.7609 33.9065C44.8971 34.0415 45.0817 34.1173 45.2742 34.1173C45.4667 34.1173 45.6513 34.0415 45.7874 33.9065C45.9235 33.7715 46 33.5885 46 33.3976V24.7601C46 24.5692 45.9235 24.3861 45.7874 24.2511C45.6513 24.1161 45.4667 24.0403 45.2742 24.0403ZM28.7926 2.65721C28.931 2.52631 29.1149 2.45327 29.3061 2.45327C29.4973 2.45327 29.6812 2.52631 29.8196 2.65721L32.634 5.44999L9.52745 28.359H2.96239L28.7926 2.65721ZM18.2065 35.3464C18.0681 35.4773 17.8842 35.5503 17.6929 35.5503C17.5017 35.5503 17.3178 35.4773 17.1794 35.3464L10.8593 29.0788L33.661 6.46669L39.9811 12.7342C40.0486 12.8011 40.1021 12.8805 40.1387 12.9679C40.1752 13.0552 40.194 13.1489 40.194 13.2435C40.194 13.3381 40.1752 13.4318 40.1387 13.5191C40.1021 13.6065 40.0486 13.6859 39.9811 13.7527L18.2065 35.3464Z" fill="#1D1D1B" stroke="#1D1D1B"/>
</svg>
