<svg width="16" height="19" viewBox="0 0 16 19" fill="none" xmlns="http://www.w3.org/2000/svg">
<path d="M3.99344 1.3462C4.02063 1.12793 3.96842 0.906635 3.8483 0.731003C3.72819 0.555371 3.55 0.439786 3.35294 0.409675C3.15589 0.379563 2.9561 0.437393 2.79754 0.570441C2.63898 0.703489 2.53463 0.900858 2.50744 1.11913L0.507444 17.1801C0.493074 17.2887 0.498265 17.3993 0.522719 17.5057C0.547173 17.612 0.590404 17.7119 0.649916 17.7997C0.709428 17.8874 0.784042 17.9612 0.869448 18.0168C0.954854 18.0724 1.04936 18.1087 1.14751 18.1236C1.24566 18.1386 1.3455 18.1318 1.44128 18.1038C1.53705 18.0757 1.62686 18.0269 1.70551 17.9602C1.78417 17.8935 1.85011 17.8101 1.89953 17.715C1.94895 17.6199 1.98087 17.5149 1.99344 17.4061L3.99344 1.3462ZM13.4934 1.11913C13.4663 0.900858 13.3619 0.703489 13.2033 0.570441C13.0448 0.437393 12.845 0.379563 12.6479 0.409675C12.4509 0.439786 12.2727 0.555371 12.1526 0.731003C12.0325 0.906635 11.9803 1.12793 12.0074 1.3462L14.0074 17.4072C14.0346 17.6255 14.139 17.8228 14.2975 17.9559C14.4561 18.0889 14.6559 18.1468 14.8529 18.1166C15.05 18.0865 15.2282 17.9709 15.3483 17.7953C15.4684 17.6197 15.5206 17.3984 15.4934 17.1801L13.4934 1.11913ZM8.75044 1.23211C8.75044 1.01178 8.67143 0.80048 8.53077 0.644686C8.39012 0.488891 8.19936 0.401367 8.00044 0.401367C7.80153 0.401367 7.61077 0.488891 7.47011 0.644686C7.32946 0.80048 7.25044 1.01178 7.25044 1.23211V4.00125C7.25044 4.22157 7.32946 4.43287 7.47011 4.58867C7.61077 4.74446 7.80153 4.83199 8.00044 4.83199C8.19936 4.83199 8.39012 4.74446 8.53077 4.58867C8.67143 4.43287 8.75044 4.22157 8.75044 4.00125V1.23211ZM7.25044 10.6472C7.25044 10.8675 7.32946 11.0788 7.47011 11.2346C7.61077 11.3904 7.80153 11.4779 8.00044 11.4779C8.19936 11.4779 8.39012 11.3904 8.53077 11.2346C8.67143 11.0788 8.75044 10.8675 8.75044 10.6472V7.87804C8.75044 7.65771 8.67143 7.44641 8.53077 7.29062C8.39012 7.13482 8.19936 7.0473 8.00044 7.0473C7.80153 7.0473 7.61077 7.13482 7.47011 7.29062C7.32946 7.44641 7.25044 7.65771 7.25044 7.87804V10.6472ZM7.25044 14.524C7.25044 14.3036 7.32946 14.0923 7.47011 13.9365C7.61077 13.7807 7.80153 13.6932 8.00044 13.6932C8.19936 13.6932 8.39012 13.7807 8.53077 13.9365C8.67143 14.0923 8.75044 14.3036 8.75044 14.524V17.2931C8.75044 17.5134 8.67143 17.7247 8.53077 17.8805C8.39012 18.0363 8.19936 18.1238 8.00044 18.1238C7.80153 18.1238 7.61077 18.0363 7.47011 17.8805C7.32946 17.7247 7.25044 17.5134 7.25044 17.2931V14.524Z" fill="black"/>
</svg>
