<svg width="34" height="30" viewBox="0 0 34 30" fill="none" xmlns="http://www.w3.org/2000/svg">
<path d="M24.5432 2.4C25.4169 2.39927 26.282 2.57296 27.0877 2.91089C27.8934 3.24883 28.6235 3.74422 29.2352 4.368C30.4957 5.64766 31.2023 7.37179 31.2023 9.168C31.2023 10.9642 30.4957 12.6883 29.2352 13.968L16.8032 26.556L4.37124 13.968C3.11074 12.6883 2.40419 10.9642 2.40419 9.168C2.40419 7.37179 3.11074 5.64766 4.37124 4.368C4.98336 3.74466 5.71354 3.24954 6.51914 2.91155C7.32474 2.57357 8.18961 2.39949 9.06324 2.39949C9.93688 2.39949 10.8017 2.57357 11.6074 2.91155C12.413 3.24954 13.1431 3.74466 13.7552 4.368L16.8032 7.488L19.8392 4.392C20.4491 3.76078 21.1801 3.25904 21.9883 2.91677C22.7965 2.5745 23.6655 2.39874 24.5432 2.4ZM24.5432 3.21942e-06C23.35 -0.00100805 22.1685 0.236229 21.0682 0.697806C19.9678 1.15938 18.9707 1.83601 18.1352 2.688L16.8032 4.032L15.4712 2.688C14.6348 1.83754 13.6374 1.16209 12.5372 0.701032C11.4371 0.239969 10.2561 0.00251691 9.06324 0.00251691C7.87037 0.00251691 6.68943 0.239969 5.58926 0.701032C4.48909 1.16209 3.49171 1.83754 2.65525 2.688C0.9535 4.42035 0 6.75163 0 9.18C0 11.6084 0.9535 13.9397 2.65525 15.672L16.8032 30L30.9512 15.672C32.653 13.9397 33.6065 11.6084 33.6065 9.18C33.6065 6.75163 32.653 4.42035 30.9512 2.688C30.1146 1.83763 29.1172 1.16207 28.0171 0.700608C26.917 0.239149 25.7362 0.000997917 24.5432 3.21942e-06Z" fill="#1D1D1B"/>
</svg>
