<svg width="31" height="33" viewBox="0 0 31 33" fill="none" xmlns="http://www.w3.org/2000/svg">
<path fill-rule="evenodd" clip-rule="evenodd" d="M13.2795 0.5H17.6628C17.9496 0.5 18.2247 0.617601 18.4275 0.826932C18.6303 1.03626 18.7442 1.32018 18.7442 1.61621C18.7442 1.91225 18.6303 2.19617 18.4275 2.4055C18.2247 2.61483 17.9496 2.73243 17.6628 2.73243H13.3372C10.9567 2.73243 9.24665 2.73243 7.91293 2.86489C6.59507 2.99437 5.75735 3.24142 5.08833 3.6641C4.26369 4.18604 3.57047 4.90209 3.0654 5.75365C2.65591 6.44421 2.41656 7.30891 2.29112 8.67069C2.16423 10.0459 2.16279 11.811 2.16279 14.2681V15.7564C2.16279 17.5052 2.16279 18.7613 2.22912 19.7525C2.294 20.7332 2.418 21.3732 2.62995 21.8971C3.2519 23.4469 4.44479 24.6782 5.94623 25.3201C6.68879 25.6386 7.63753 25.7577 9.44851 25.7904H9.49321C10.0671 25.8009 10.5703 25.8098 10.9884 25.8574C11.4368 25.9095 11.8766 26.0122 12.2991 26.2652C12.7172 26.5182 13.02 26.8531 13.2824 27.2251C13.5261 27.5704 13.7755 28.0065 14.0581 28.4991L14.8641 29.9041C14.9315 30.0154 15.0253 30.1072 15.1365 30.1709C15.2477 30.2345 15.3728 30.2679 15.5 30.2679C15.6272 30.2679 15.7523 30.2345 15.8635 30.1709C15.9747 30.1072 16.0685 30.0154 16.1359 29.9041L16.9419 28.4991C17.2245 28.0065 17.4753 27.5704 17.7176 27.2251C17.98 26.8531 18.2828 26.5167 18.7009 26.2652C19.1234 26.0122 19.5632 25.908 20.0116 25.8574C20.4297 25.8098 20.9329 25.8009 21.5068 25.7904H21.5529C23.3625 25.7577 24.3112 25.6386 25.0538 25.3201C26.5552 24.6782 27.7481 23.4469 28.37 21.8971C28.582 21.3732 28.706 20.7332 28.7709 19.7525C28.8372 18.7613 28.8372 17.5052 28.8372 15.7564V14.2681C28.8372 13.9721 28.9511 13.6882 29.1539 13.4788C29.3567 13.2695 29.6318 13.1519 29.9186 13.1519C30.2054 13.1519 30.4805 13.2695 30.6833 13.4788C30.8861 13.6882 31 13.9721 31 14.2681V15.7981C31 17.4962 31 18.8282 30.9279 19.9043C30.8558 20.9982 30.7073 21.909 30.3685 22.7514C29.9518 23.7897 29.3411 24.7331 28.5712 25.5278C27.8013 26.3225 26.8873 26.9528 25.8814 27.3829C24.7207 27.88 23.4 27.9901 21.589 28.0229C21.1419 28.0212 20.6951 28.0391 20.2495 28.0764C19.964 28.1092 19.853 28.1568 19.7881 28.1955C19.7203 28.2372 19.6266 28.3116 19.4651 28.5408C19.2907 28.7878 19.0931 29.1301 18.7788 29.6778L17.9973 31.0411C16.8827 32.9863 14.1187 32.9863 13.0027 31.0411L12.2212 29.6778C12.0076 29.2893 11.7786 28.91 11.5349 28.5408C11.3734 28.3116 11.2797 28.2372 11.2119 28.1955C11.147 28.1568 11.036 28.1092 10.7505 28.0764C10.4448 28.0422 10.044 28.0318 9.40958 28.0214C7.60005 27.9901 6.2793 27.88 5.1186 27.3829C4.11255 26.9527 3.19847 26.3221 2.42856 25.5271C1.65866 24.7322 1.04802 23.7885 0.631535 22.7499C0.292698 21.9075 0.144186 20.9967 0.0706512 19.9028C3.75994e-08 18.8267 0 17.4947 0 15.7951V14.2086C0 11.8214 4.29708e-08 9.9521 0.136977 8.45638C0.278279 6.93386 0.569535 5.68519 1.22126 4.58683C1.90503 3.43487 2.84332 2.46637 3.95935 1.76058C5.02344 1.08787 6.23316 0.787239 7.70819 0.641387C9.15581 0.5 10.9682 0.5 13.281 0.5M25.593 2.73243C25.167 2.73243 24.7451 2.81904 24.3515 2.98733C23.9579 3.15561 23.6003 3.40227 23.299 3.71322C22.9978 4.02417 22.7588 4.39333 22.5958 4.7996C22.4327 5.20588 22.3488 5.64132 22.3488 6.08107C22.3488 6.52082 22.4327 6.95627 22.5958 7.36254C22.7588 7.76882 22.9978 8.13797 23.299 8.44892C23.6003 8.75987 23.9579 9.00653 24.3515 9.17481C24.7451 9.3431 25.167 9.42971 25.593 9.42971C26.4534 9.42971 27.2786 9.07691 27.887 8.44892C28.4954 7.82093 28.8372 6.96919 28.8372 6.08107C28.8372 5.19296 28.4954 4.34122 27.887 3.71322C27.2786 3.08523 26.4534 2.73243 25.593 2.73243ZM20.186 6.08107C20.186 4.60088 20.7557 3.18131 21.7697 2.13466C22.7837 1.088 24.159 0.5 25.593 0.5C27.027 0.5 28.4023 1.088 29.4163 2.13466C30.4303 3.18131 31 4.60088 31 6.08107C31 7.56126 30.4303 8.98083 29.4163 10.0275C28.4023 11.0741 27.027 11.6621 25.593 11.6621C24.159 11.6621 22.7837 11.0741 21.7697 10.0275C20.7557 8.98083 20.186 7.56126 20.186 6.08107Z" fill="#1D1D1B"/>
</svg>
