<svg width="48" height="51" viewBox="0 0 48 51" fill="none" xmlns="http://www.w3.org/2000/svg">
<path d="M12.0052 14.9971C12.0052 14.5993 12.1632 14.2179 12.4444 13.9366C12.7257 13.6554 13.1071 13.4974 13.5049 13.4974H22.5031C22.9009 13.4974 23.2823 13.6554 23.5636 13.9366C23.8448 14.2179 24.0028 14.5993 24.0028 14.9971C24.0028 15.3948 23.8448 15.7763 23.5636 16.0575C23.2823 16.3388 22.9009 16.4968 22.5031 16.4968H13.5049C13.1071 16.4968 12.7257 16.3388 12.4444 16.0575C12.1632 15.7763 12.0052 15.3948 12.0052 14.9971ZM13.5049 19.4962C13.1071 19.4962 12.7257 19.6542 12.4444 19.9354C12.1632 20.2167 12.0052 20.5981 12.0052 20.9959C12.0052 21.3936 12.1632 21.7751 12.4444 22.0563C12.7257 22.3376 13.1071 22.4956 13.5049 22.4956H19.5037C19.9014 22.4956 20.2829 22.3376 20.5642 22.0563C20.8454 21.7751 21.0034 21.3936 21.0034 20.9959C21.0034 20.5981 20.8454 20.2167 20.5642 19.9354C20.2829 19.6542 19.9014 19.4962 19.5037 19.4962H13.5049ZM18.004 1.02011e-06C14.8818 -0.0010501 11.813 0.810215 9.09914 2.35408C6.38531 3.89795 4.11983 6.1213 2.52531 8.80567C0.930782 11.49 0.0620669 14.5431 0.00452235 17.6648C-0.0530222 20.7865 0.702583 23.8695 2.19709 26.6108L0.0675122 34.0793C-0.00742127 34.3416 -0.00941759 34.6193 0.0617384 34.8826C0.132894 35.1459 0.274508 35.3848 0.471339 35.5736C0.668169 35.7624 0.912763 35.894 1.1788 35.9541C1.44483 36.0143 1.72223 36.0007 1.98114 35.915L8.99376 33.5784C11.3839 34.9596 14.0597 35.7724 16.8142 35.954C19.5687 36.1355 22.328 35.681 24.8788 34.6256C27.4295 33.5702 29.7032 31.9421 31.5241 29.8673C33.345 27.7925 34.6641 25.3267 35.3796 22.6605C36.095 19.9944 36.1875 17.1994 35.6499 14.4918C35.1123 11.7841 33.959 9.23648 32.2793 7.04586C30.5996 4.85525 28.4385 3.08041 25.9631 1.85864C23.4877 0.636868 20.7645 0.000923667 18.004 1.02011e-06ZM3.00694 17.9965C3.00743 14.6689 4.11457 11.4361 6.15406 8.8068C8.19355 6.17755 11.0496 4.30125 14.2724 3.47329C17.4953 2.64533 20.902 2.91275 23.9563 4.23343C27.0105 5.55412 29.5387 7.85307 31.143 10.7683C32.7473 13.6836 33.3364 17.0496 32.8177 20.3365C32.299 23.6234 30.7019 26.6444 28.2778 28.9239C25.8537 31.2035 22.7404 32.6121 19.4279 32.928C16.1154 33.2439 12.7918 32.4492 9.98057 30.669C9.79252 30.5498 9.58029 30.4739 9.35928 30.4469C9.13827 30.42 8.91402 30.4425 8.70282 30.513L3.72979 32.1717L5.25949 26.8297C5.31523 26.633 5.33015 26.4269 5.30332 26.2242C5.2765 26.0215 5.20851 25.8264 5.10352 25.651C3.72997 23.334 3.00574 20.69 3.00694 17.9965ZM30.8295 41.8328L23.6249 38.2335C24.9486 37.8636 26.2114 37.3757 27.4131 36.7698L31.5013 38.8154L44.9987 32.0667V29.9941C44.9987 29.1986 44.6827 28.4357 44.1202 27.8732C43.5577 27.3107 42.7948 26.9947 41.9993 26.9947H36.9783C37.4382 26.0329 37.8221 25.0331 38.13 23.9953H41.9993C43.5903 23.9953 45.1161 24.6273 46.2411 25.7523C47.3661 26.8773 47.9981 28.4031 47.9981 29.9941V44.9912C47.9981 46.5822 47.3661 48.108 46.2411 49.233C45.1161 50.358 43.5903 50.99 41.9993 50.99H21.0034C19.4124 50.99 17.8866 50.358 16.7616 49.233C15.6366 48.108 15.0046 46.5822 15.0046 44.9912V38.7824C15.9844 38.9224 16.9842 38.9924 18.004 38.9924V44.9912C18.004 45.7867 18.32 46.5496 18.8825 47.1121C19.445 47.6746 20.2079 47.9906 21.0034 47.9906H41.9993C42.7948 47.9906 43.5577 47.6746 44.1202 47.1121C44.6827 46.5496 44.9987 45.7867 44.9987 44.9912V35.4201L32.1732 41.8328C31.9647 41.9373 31.7346 41.9917 31.5013 41.9917C31.2681 41.9917 31.038 41.9373 30.8295 41.8328Z" fill="black"/>
</svg>
