<svg width="31" height="35" viewBox="0 0 31 35" fill="none" xmlns="http://www.w3.org/2000/svg">
<path d="M4.65276 16.6856C4.53596 18.9192 4.67036 21.2968 2.67516 22.7928C2.21644 23.1361 1.84421 23.5817 1.5881 24.0942C1.33199 24.6067 1.19908 25.1719 1.19996 25.7448C1.19996 27.34 2.45116 28.7 4.07996 28.7H27.12C28.7488 28.7 30 27.34 30 25.7448C30 24.5832 29.4528 23.4888 28.5248 22.7928C26.5296 21.2968 26.664 18.9192 26.5472 16.6856C26.4032 13.8793 25.187 11.2355 23.1498 9.30016C21.1126 7.3648 18.4099 6.28569 15.6 6.28569C12.79 6.28569 10.0873 7.3648 8.05013 9.30016C6.01292 11.2355 4.79674 13.8793 4.65276 16.6856Z" stroke="#1D1D1B" stroke-width="2" stroke-linecap="round" stroke-linejoin="round"/>
<path d="M20.3999 28.7C20.3999 29.973 19.8942 31.1939 18.994 32.0941C18.0939 32.9943 16.873 33.5 15.5999 33.5C14.3269 33.5 13.106 32.9943 12.2058 32.0941C11.3056 31.1939 10.7999 29.973 10.7999 28.7M13.1999 3.3C13.1999 4.6248 14.2751 6.3 15.5999 6.3C16.9247 6.3 17.9999 4.6248 17.9999 3.3C17.9999 1.9752 16.9247 1.5 15.5999 1.5C14.2751 1.5 13.1999 1.9752 13.1999 3.3Z" stroke="#1D1D1B" stroke-width="2" stroke-linecap="round" stroke-linejoin="round"/>
</svg>
