<svg width="12" height="13" viewBox="0 0 12 13" fill="none" xmlns="http://www.w3.org/2000/svg">
<path d="M3.63538 7.73109H3.23145C3.23145 7.83822 3.27401 7.94097 3.34976 8.01672C3.42551 8.09247 3.52825 8.13503 3.63538 8.13503V7.73109ZM6.86684 7.73109V8.13503C6.97397 8.13503 7.07671 8.09247 7.15246 8.01672C7.22821 7.94097 7.27077 7.83822 7.27077 7.73109H6.86684ZM6.86684 5.71144H7.27077C7.27086 5.65836 7.2605 5.60578 7.24026 5.55671C7.22002 5.50764 7.19031 5.46303 7.15282 5.42545L6.86684 5.71144ZM5.25111 4.09571L5.53709 3.80973C5.49957 3.77211 5.455 3.74227 5.40592 3.7219C5.35685 3.70154 5.30424 3.69106 5.25111 3.69106C5.19798 3.69106 5.14537 3.70154 5.0963 3.7219C5.04722 3.74227 5.00265 3.77211 4.96513 3.80973L5.25111 4.09571ZM3.63538 5.71144L3.3494 5.42545C3.31191 5.46303 3.2822 5.50764 3.26196 5.55671C3.24173 5.60578 3.23136 5.65836 3.23145 5.71144H3.63538ZM12 12.2923L8.76855 9.06084L8.19658 9.6328L11.428 12.8643L12 12.2923ZM5.25111 10.5586C4.07269 10.5586 2.94253 10.0905 2.10926 9.25722C1.27599 8.42395 0.807863 7.29379 0.807863 6.11537H0C0 7.50805 0.55324 8.84369 1.53801 9.82846C2.52279 10.8132 3.85843 11.3665 5.25111 11.3665V10.5586ZM9.69436 6.11537C9.69436 7.29379 9.22623 8.42395 8.39296 9.25722C7.55969 10.0905 6.42953 10.5586 5.25111 10.5586V11.3665C6.64379 11.3665 7.97943 10.8132 8.96421 9.82846C9.94898 8.84369 10.5022 7.50805 10.5022 6.11537H9.69436ZM5.25111 1.67212C6.42953 1.67212 7.55969 2.14025 8.39296 2.97352C9.22623 3.80679 9.69436 4.93695 9.69436 6.11537H10.5022C10.5022 4.72269 9.94898 3.38705 8.96421 2.40227C7.97943 1.4175 6.64379 0.864258 5.25111 0.864258V1.67212ZM5.25111 0.864258C3.85843 0.864258 2.52279 1.4175 1.53801 2.40227C0.55324 3.38705 0 4.72269 0 6.11537H0.807863C0.807863 4.93695 1.27599 3.80679 2.10926 2.97352C2.94253 2.14025 4.07269 1.67212 5.25111 1.67212V0.864258ZM3.63538 8.13503H6.86684V7.32716H3.63538V8.13503ZM7.27077 7.73109V5.71144H6.46291V7.73109H7.27077ZM7.15282 5.42545L5.53709 3.80973L4.96513 4.38169L6.58085 5.99742L7.15282 5.42545ZM4.96513 3.80973L3.3494 5.42545L3.92137 5.99742L5.53709 4.38169L4.96513 3.80973ZM3.23145 5.71144V7.73109H4.03932V5.71144H3.23145Z" fill="#1D1D1B"/>
</svg>
