<svg width="28" height="19" viewBox="0 0 28 19" fill="none" xmlns="http://www.w3.org/2000/svg">
<g id="Group">
<path id="Vector" opacity="0.2" d="M20.4368 9.98755C20.4368 11.5339 19.9782 13.0454 19.1192 14.3311C18.2601 15.6168 17.039 16.6189 15.6104 17.2107C14.1818 17.8024 12.6099 17.9572 11.0933 17.6556C9.57668 17.3539 8.1836 16.6093 7.0902 15.5159C5.9968 14.4225 5.25219 13.0294 4.95052 11.5128C4.64885 9.99622 4.80368 8.42424 5.39542 6.99564C5.98717 5.56705 6.98925 4.34601 8.27495 3.48693C9.56065 2.62785 11.0722 2.16932 12.6185 2.16932C14.6921 2.16932 16.6807 2.99302 18.1469 4.45923C19.6131 5.92543 20.4368 7.91403 20.4368 9.98755Z" fill="#FFED00"/>
<path id="Vector_2" d="M12.6479 12.8647C13.7969 12.092 14.6692 10.9663 15.1359 9.654C15.6026 8.34173 15.6388 6.91259 15.2392 5.57792C14.8397 4.24324 14.0255 3.0739 12.9171 2.2428C11.8087 1.4117 10.465 0.962967 9.08459 0.962967C7.70421 0.962967 6.36048 1.4117 5.2521 2.2428C4.14371 3.0739 3.32953 4.24324 2.92994 5.57792C2.53035 6.91259 2.56658 8.34173 3.03326 9.654C3.49994 10.9663 4.37229 12.092 5.52133 12.8647C3.44284 13.6385 1.66776 15.0705 0.460958 16.9469C0.397533 17.0421 0.353477 17.1491 0.331353 17.2617C0.309228 17.3743 0.309476 17.4902 0.332081 17.6027C0.354687 17.7151 0.399199 17.8219 0.463031 17.9169C0.526863 18.0118 0.608741 18.093 0.703905 18.1557C0.79907 18.2184 0.905623 18.2614 1.01737 18.2821C1.12912 18.3029 1.24383 18.3009 1.35485 18.2765C1.46586 18.2521 1.57095 18.2056 1.66402 18.1397C1.75709 18.0739 1.83628 17.9901 1.89698 17.893C2.67542 16.6836 3.74061 15.6898 4.99583 15.0018C6.25104 14.3138 7.6565 13.9535 9.08459 13.9535C10.5127 13.9535 11.9181 14.3138 13.1734 15.0018C14.4286 15.6898 15.4938 16.6836 16.2722 17.893C16.3979 18.0818 16.5922 18.213 16.8129 18.2583C17.0337 18.3036 17.2632 18.2593 17.4519 18.135C17.6405 18.0107 17.7732 17.8163 17.8212 17.594C17.8691 17.3717 17.8286 17.1393 17.7082 16.9469C16.5014 15.0705 14.7263 13.6385 12.6479 12.8647ZM4.3693 7.46075C4.3693 6.51869 4.64584 5.5978 5.16397 4.81451C5.68209 4.03122 6.41852 3.42072 7.28013 3.06021C8.14173 2.6997 9.08982 2.60538 10.0045 2.78916C10.9192 2.97295 11.7594 3.42659 12.4188 4.09272C13.0783 4.75886 13.5273 5.60756 13.7093 6.53151C13.8912 7.45546 13.7978 8.41317 13.441 9.28351C13.0841 10.1539 12.4797 10.8977 11.7043 11.4211C10.9288 11.9445 10.0172 12.2239 9.08459 12.2239C7.83445 12.2224 6.63592 11.7201 5.75194 10.8272C4.86796 9.93425 4.37071 8.72356 4.3693 7.46075ZM26.8891 18.1453C26.6987 18.2707 26.4667 18.3146 26.2443 18.2673C26.0218 18.22 25.827 18.0854 25.7028 17.893C24.9253 16.6829 23.8602 15.6886 22.6048 15.0009C21.3493 14.3132 19.9434 13.954 18.5152 13.9559C18.2878 13.9559 18.0697 13.8647 17.909 13.7022C17.7482 13.5398 17.6579 13.3196 17.6579 13.0899C17.6579 12.8602 17.7482 12.6399 17.909 12.4775C18.0697 12.3151 18.2878 12.2239 18.5152 12.2239C19.2096 12.2232 19.8953 12.0676 20.5233 11.7682C21.1512 11.4689 21.706 11.0331 22.1479 10.492C22.5898 9.95094 22.908 9.31796 23.0797 8.63829C23.2513 7.95862 23.2723 7.24904 23.141 6.56025C23.0097 5.87146 22.7295 5.22045 22.3202 4.65376C21.911 4.08706 21.3829 3.61866 20.7737 3.28202C20.1645 2.94539 19.4892 2.74882 18.7961 2.70637C18.103 2.66392 17.4091 2.77664 16.7641 3.03647C16.6589 3.08239 16.5457 3.10656 16.4312 3.10754C16.3166 3.10852 16.203 3.08629 16.0971 3.04217C15.9911 2.99804 15.8951 2.93293 15.8145 2.85066C15.7339 2.76839 15.6705 2.67064 15.6279 2.56318C15.5853 2.45572 15.5646 2.34074 15.5667 2.22503C15.5689 2.10932 15.594 1.99522 15.6406 1.88948C15.6872 1.78375 15.7543 1.68851 15.8379 1.60941C15.9215 1.5303 16.02 1.46893 16.1275 1.42892C17.6037 0.834239 19.2456 0.812839 20.7365 1.36885C22.2273 1.92486 23.4615 3.01889 24.201 4.43987C24.9404 5.86086 25.1327 7.50812 24.7408 9.06388C24.3488 10.6196 23.4004 11.9736 22.0784 12.8647C24.1569 13.6385 25.932 15.0705 27.1388 16.9469C27.263 17.1393 27.3065 17.3736 27.2596 17.5983C27.2128 17.823 27.0795 18.0198 26.8891 18.1453Z" fill="#1D1D1B"/>
</g>
</svg>
