<svg width="52" height="51" viewBox="0 0 52 51" fill="none" xmlns="http://www.w3.org/2000/svg">
<path d="M51.5 25.4745C51.5 11.4113 40.076 0 26 0C11.924 0 0.5 11.4113 0.5 25.4745C0.5 33.2201 4.019 40.2007 9.527 44.8864C9.578 44.9374 9.629 44.9374 9.629 44.9884C10.088 45.3454 10.547 45.7024 11.057 46.0594C11.312 46.2124 11.516 46.4132 11.771 46.6172C15.9868 49.4708 20.9602 50.9972 26.051 51C31.1418 50.9972 36.1152 49.4708 40.331 46.6172C40.586 46.4642 40.79 46.2634 41.045 46.1072C41.504 45.7534 42.014 45.3964 42.473 45.0394C42.524 44.9884 42.575 44.9884 42.575 44.9374C47.981 40.1976 51.5 33.2201 51.5 25.4745ZM26 47.7902C21.206 47.7902 16.82 46.2602 13.199 43.7134C13.25 43.3054 13.352 42.9006 13.454 42.4926C13.7589 41.3872 14.2045 40.3256 14.78 39.3338C15.341 38.3647 16.004 37.4977 16.82 36.7327C17.585 35.9678 18.503 35.2569 19.421 34.6959C20.39 34.1349 21.41 33.7269 22.532 33.4209C23.6631 33.118 24.829 32.9647 26 32.9651C29.4768 32.9388 32.8261 34.2726 35.333 36.6818C36.506 37.8548 37.424 39.2307 38.087 40.8096C38.444 41.7276 38.699 42.6955 38.852 43.7134C35.0881 46.3595 30.6009 47.7829 26 47.7902ZM18.197 24.2027C17.7486 23.1735 17.5226 22.0612 17.534 20.9387C17.534 19.8199 17.738 18.6979 18.197 17.6779C18.656 16.6579 19.268 15.7431 20.033 14.9781C20.798 14.2131 21.716 13.6042 22.736 13.1453C23.756 12.6863 24.878 12.4822 26 12.4822C27.173 12.4822 28.244 12.6863 29.264 13.1453C30.284 13.6042 31.202 14.2162 31.967 14.9781C32.732 15.7431 33.344 16.6611 33.803 17.6779C34.262 18.6979 34.466 19.8199 34.466 20.9387C34.466 22.1117 34.262 23.1827 33.803 24.1995C33.3626 25.2058 32.7401 26.1222 31.967 26.9025C31.1864 27.6745 30.2701 28.2958 29.264 28.7353C27.1562 29.5997 24.7928 29.5997 22.685 28.7353C21.6789 28.2958 20.7626 27.6745 19.982 26.9025C19.2082 26.1332 18.6007 25.2164 18.197 24.2027ZM41.861 41.1156C41.861 41.0136 41.81 40.9626 41.81 40.8606C41.3093 39.2646 40.5699 37.7536 39.617 36.3789C38.6633 34.9942 37.4922 33.7725 36.149 32.7611C35.1228 31.9889 34.0103 31.3385 32.834 30.8231C33.3667 30.4668 33.8622 30.0578 34.313 29.6023C35.0733 28.8517 35.7411 28.0127 36.302 27.1033C37.4354 25.2492 38.019 23.1115 37.985 20.9387C38.0017 19.3306 37.6893 17.736 37.067 16.2531C36.4534 14.824 35.5703 13.5264 34.466 12.4313C33.3606 11.3508 32.0634 10.4861 30.641 9.88125C29.1558 9.25922 27.5591 8.94789 25.949 8.96644C24.3387 8.9489 22.7419 9.26131 21.257 9.88444C19.8189 10.4819 18.5175 11.3657 17.432 12.4822C16.346 13.5818 15.4804 14.8791 14.882 16.3041C14.2597 17.787 13.9473 19.3816 13.964 20.9897C13.964 22.1117 14.117 23.1816 14.423 24.1995C14.729 25.2705 15.137 26.2395 15.698 27.1543C16.208 28.0723 16.922 28.8883 17.687 29.6533C18.146 30.1123 18.656 30.5192 19.217 30.8741C18.0354 31.4002 16.9222 32.0681 15.902 32.8631C14.576 33.8831 13.403 35.1039 12.434 36.4299C11.4722 37.7994 10.7322 39.3118 10.241 40.9116C10.19 41.0136 10.19 41.1156 10.19 41.1666C6.161 37.0897 3.662 31.5881 3.662 25.4745C3.662 13.1962 13.709 3.15881 26 3.15881C38.291 3.15881 48.338 13.1962 48.338 25.4745C48.3313 31.3394 46.0026 36.963 41.861 41.1156Z" fill="#1D1D1B"/>
</svg>
