<svg width="166" height="104" viewBox="0 0 166 104" fill="none" xmlns="http://www.w3.org/2000/svg">
<mask id="mask0_1235_1647" style="mask-type:luminance" maskUnits="userSpaceOnUse" x="0" y="17" width="166" height="87">
<path d="M0 17.4175H165.798V103.74H0V17.4175Z" fill="white"/>
</mask>
<g mask="url(#mask0_1235_1647)">
<path d="M17.4147 17.4231H148.381C150.761 17.4231 153.05 17.969 155.158 18.9526C157.306 19.9584 159.223 21.4103 160.814 23.1947L160.822 23.2031C162.39 24.9708 163.659 27.0795 164.521 29.4097C165.344 31.6347 165.798 34.0592 165.798 36.5806V84.5826C165.798 87.104 165.344 89.5285 164.521 91.7507C163.659 94.0837 162.39 96.1924 160.822 97.9601L160.816 97.9629L160.814 97.9657C159.223 99.7529 157.306 101.202 155.158 102.208C153.05 103.194 150.761 103.74 148.381 103.74H17.4147C15.0373 103.74 12.7486 103.194 10.64 102.208C8.49261 101.202 6.57242 99.7529 4.98473 97.9657L4.98196 97.9629L4.97642 97.9601C3.40813 96.1924 2.13908 94.0837 1.27735 91.7507C0.454417 89.5285 0 87.104 0 84.5826V36.5806C0 34.0564 0.454417 31.6319 1.27458 29.4097C2.13908 27.0767 3.40535 24.9681 4.97642 23.2031L4.98473 23.1947C6.56965 21.4103 8.48983 19.9584 10.64 18.9526C12.7458 17.969 15.0373 17.4231 17.4147 17.4231ZM148.381 24.3391H17.4147C16.0376 24.3391 14.7298 24.6439 13.5549 25.1925C12.2886 25.7855 11.1304 26.6749 10.1413 27.7888L10.1302 27.7943C9.12436 28.9276 8.30973 30.2825 7.75556 31.7871C7.20971 33.2584 6.91046 34.8766 6.91046 36.5806V84.5826C6.91046 86.2839 7.20971 87.902 7.75556 89.3733C8.3125 90.8779 9.12713 92.2328 10.1329 93.3661L10.1025 93.3938L10.108 93.4021L10.1413 93.3744C11.1304 94.4883 12.2914 95.375 13.5577 95.9679C14.7353 96.5193 16.0376 96.8241 17.4147 96.8241H148.381C149.761 96.8241 151.063 96.5193 152.241 95.9679C153.507 95.375 154.668 94.4883 155.657 93.3744L155.688 93.4021L155.696 93.3938L155.665 93.3661C156.671 92.2328 157.486 90.8779 158.043 89.3733C158.586 87.902 158.888 86.2839 158.888 84.5826V36.5806C158.888 34.8793 158.586 33.2584 158.043 31.7899C157.486 30.2853 156.671 28.9304 155.665 27.7971L155.696 27.7694L155.688 27.7583L155.657 27.7888C154.668 26.6749 153.507 25.7855 152.241 25.1953C151.063 24.6439 149.761 24.3391 148.381 24.3391Z" fill="#212121"/>
</g>
<mask id="mask1_1235_1647" style="mask-type:luminance" maskUnits="userSpaceOnUse" x="3" y="0" width="160" height="8">
<path d="M3.08398 0H162.684V7.48679H3.08398V0Z" fill="white"/>
</mask>
<g mask="url(#mask1_1235_1647)">
<path d="M162.654 6.916H3.4248V0H162.654V6.916Z" fill="#212121"/>
</g>
<path d="M138.184 3.45801V20.748H131.274V3.45801H138.184ZM37.9798 3.45801V20.748H31.0693V3.45801H37.9798Z" fill="#212121"/>
<path d="M27.8858 49.7529H35.7189V45.4221H23.1255V75.7406H27.8858V63.222H34.0343V58.8911H27.8858V49.7529ZM42.3855 52.3935C42.3939 51.3185 42.6155 50.5537 43.0478 50.0854C43.4911 49.6227 44.0896 49.39 44.8544 49.4038C45.6191 49.39 46.2176 49.6227 46.6582 50.0854C47.0904 50.5537 47.3121 51.3185 47.3204 52.3935V68.7692C47.3121 69.8415 47.0904 70.609 46.6582 71.0773C46.2176 71.54 45.6191 71.77 44.8544 71.7561C44.0896 71.77 43.4911 71.54 43.0478 71.0773C42.6155 70.609 42.3939 69.8415 42.3855 68.7692V52.3935ZM37.6253 68.4644C37.6253 70.0881 37.9079 71.4596 38.4621 72.5929C39.0162 73.729 39.8253 74.5935 40.9004 75.192C41.9755 75.7849 43.2944 76.0814 44.8544 76.0897C46.4116 76.0814 47.7305 75.7849 48.8056 75.192C49.8834 74.5935 50.6897 73.729 51.2439 72.5929C51.8008 71.4596 52.0835 70.0881 52.0835 68.4644V52.6983C52.0835 51.0719 51.8008 49.6947 51.2439 48.5615C50.6897 47.4282 49.8834 46.5692 48.8056 45.968C47.7305 45.3778 46.4116 45.0813 44.8544 45.073C43.2944 45.0813 41.9755 45.3778 40.9004 45.968C39.8253 46.5692 39.0162 47.4282 38.4621 48.5615C37.9079 49.6947 37.6253 51.0719 37.6253 52.6983V68.4644ZM69.9581 75.7406C69.7254 75.1864 69.5813 74.6156 69.5175 74.031C69.4594 73.4463 69.4317 72.7896 69.4372 72.0609V67.381C69.4455 66.3281 69.3458 65.3749 69.149 64.5215C68.9468 63.6791 68.6143 62.9476 68.1543 62.3436C67.6916 61.7368 67.0654 61.2602 66.2784 60.9277C67.3397 60.429 68.1183 59.6725 68.6281 58.6473C69.1435 57.6276 69.3956 56.3364 69.3956 54.7765V52.3935C69.4012 50.8363 69.1573 49.534 68.6586 48.5033C68.1682 47.4698 67.4034 46.6995 66.3643 46.1869C65.3197 45.6743 63.9759 45.4221 62.3383 45.4221H55.1535V75.7406H59.9166V63.3965H61.5597C62.2829 63.391 62.8731 63.5184 63.3275 63.7706C63.7902 64.0255 64.1283 64.4356 64.3527 64.9981C64.5688 65.5689 64.6769 66.3197 64.6769 67.2507V72.0166C64.6769 72.6317 64.6908 73.136 64.7074 73.5322C64.7268 73.9312 64.7545 74.2526 64.7988 74.5131C64.8348 74.768 64.8792 74.9897 64.9374 75.1781C64.9872 75.3665 65.0427 75.5549 65.1119 75.7406H69.9581ZM62.2081 49.7529C63.0477 49.7446 63.6683 49.9968 64.0562 50.4955C64.4469 50.9998 64.6409 51.795 64.6326 52.8701V55.8599C64.6326 56.6606 64.519 57.2979 64.289 57.7662C64.0562 58.2345 63.732 58.5753 63.3053 58.7775C62.8814 58.9715 62.3688 59.0712 61.7758 59.0657H59.9166V49.7529H62.2081ZM94.0644 75.7406C93.8344 75.1864 93.6903 74.6156 93.6266 74.031C93.5684 73.4463 93.5407 72.7896 93.5462 72.0609V67.381C93.5545 66.3281 93.4548 65.3749 93.258 64.5215C93.0558 63.6791 92.7233 62.9476 92.2633 62.3436C91.8006 61.7368 91.1716 61.2602 90.3875 60.9277C91.4487 60.429 92.2273 59.6725 92.7371 58.6473C93.2525 57.6276 93.5019 56.3364 93.5019 54.7765V52.3935C93.513 50.8363 93.2664 49.534 92.7676 48.5033C92.2772 47.4698 91.5124 46.6995 90.4734 46.1869C89.426 45.6743 88.0877 45.4221 86.4473 45.4221H79.2626V75.7406H84.0256V63.3965H85.6687C86.3892 63.391 86.9821 63.5184 87.4365 63.7706C87.8993 64.0255 88.2373 64.4356 88.4617 64.9981C88.6779 65.5689 88.7859 66.3197 88.7859 67.2507V72.0166C88.7859 72.6317 88.7998 73.136 88.8136 73.5322C88.8358 73.9312 88.8663 74.2526 88.9078 74.5131C88.9439 74.768 88.9882 74.9897 89.0464 75.1781C89.0963 75.3665 89.1544 75.5549 89.2182 75.7406H94.0644ZM86.3171 49.7529C87.1539 49.7446 87.7746 49.9968 88.1653 50.4955C88.5532 50.9998 88.7499 51.795 88.7416 52.8701V55.8599C88.7416 56.6606 88.6252 57.2979 88.3952 57.7662C88.1653 58.2345 87.8411 58.5753 87.4144 58.7775C86.9904 58.9715 86.4778 59.0712 85.8849 59.0657H84.0256V49.7529H86.3171ZM101.424 49.7529H109.65V45.4221H96.6634V75.7406H109.65V71.4098H101.424V62.5292H107.96V58.1984H101.424V49.7529ZM122.765 75.7406H127.655V45.4221H123.413V63.5683L118.52 45.4221H112.546V75.7406H116.832V53.7817L122.765 75.7406ZM129.689 49.7529H134.665V75.7406H139.426V49.7529H144.405V45.4221H129.689V49.7529Z" fill="#212121"/>
</svg>
