<svg width="33" height="30" viewBox="0 0 33 30" fill="none" xmlns="http://www.w3.org/2000/svg">
<path d="M24.6972 29.9999C24.2774 30.0007 23.8671 29.8749 23.5199 29.6391L16.4371 24.8919C16.4022 24.8679 16.3608 24.855 16.3184 24.855C16.276 24.855 16.2346 24.8679 16.1997 24.8919L9.11694 29.6391C8.76127 29.8766 8.34178 30.0003 7.91417 29.9937C7.48656 29.9871 7.07105 29.8507 6.72284 29.6024C6.37463 29.3541 6.11018 29.0058 5.96461 28.6036C5.81905 28.2015 5.79925 27.7646 5.90785 27.351L8.23396 19.1479C8.24496 19.1066 8.24363 19.0631 8.23013 19.0226C8.21663 18.9821 8.19156 18.9464 8.15801 18.92L1.455 13.6506C1.10213 13.3878 0.840381 13.021 0.706451 12.6019C0.572521 12.1828 0.573127 11.7322 0.708184 11.3134C0.843241 10.8946 1.10598 10.5286 1.45955 10.2667C1.81313 10.0048 2.23981 9.86009 2.67977 9.8529L11.2247 9.53009C11.2667 9.52719 11.307 9.51221 11.3407 9.48694C11.3744 9.46167 11.4 9.4272 11.4146 9.38768L14.3578 1.38394C14.5062 0.978194 14.7756 0.627832 15.1297 0.380294C15.4838 0.132756 15.9054 0 16.3374 0C16.7694 0 17.191 0.132756 17.5451 0.380294C17.8991 0.627832 18.1686 0.978194 18.317 1.38394L21.2602 9.38768C21.2748 9.4272 21.3004 9.46167 21.3341 9.48694C21.3678 9.51221 21.4081 9.52719 21.4501 9.53009L29.995 9.8529C30.435 9.86009 30.8616 10.0048 31.2152 10.2667C31.5688 10.5286 31.8315 10.8946 31.9666 11.3134C32.1016 11.7322 32.1023 12.1828 31.9683 12.6019C31.8344 13.021 31.5726 13.3878 31.2198 13.6506L24.5168 18.92C24.4822 18.9456 24.4564 18.9811 24.4428 19.0219C24.4292 19.0627 24.4285 19.1067 24.4408 19.1479L26.7669 27.351C26.8486 27.6656 26.8567 27.9948 26.7906 28.3131C26.7245 28.6314 26.586 28.9302 26.3859 29.1863C26.1858 29.4425 25.9293 29.6491 25.6365 29.7902C25.3436 29.9313 25.0222 30.003 24.6972 29.9999ZM16.3231 22.9551C16.7437 22.9674 17.1507 23.1064 17.491 23.3539L24.5737 28.101C24.6096 28.1283 24.6534 28.1432 24.6985 28.1436C24.7436 28.144 24.7875 28.1297 24.8239 28.103C24.8602 28.0763 24.8869 28.0386 24.9 27.9954C24.9131 27.9523 24.9119 27.9061 24.8965 27.8637L22.5704 19.6606C22.456 19.2582 22.4644 18.8307 22.5947 18.4331C22.7249 18.0356 22.9711 17.686 23.3015 17.4294L30.0045 12.16C30.0411 12.1343 30.0684 12.0976 30.0826 12.0552C30.0967 12.0128 30.0969 11.967 30.0831 11.9245C30.0693 11.882 30.0422 11.8451 30.0058 11.8191C29.9695 11.7932 29.9258 11.7795 29.8811 11.7803L21.3362 11.4574C20.9178 11.4411 20.5137 11.3006 20.1755 11.0537C19.8373 10.8068 19.5803 10.4648 19.4373 10.0713L16.494 2.06754C16.4808 2.02504 16.4543 1.9879 16.4184 1.96152C16.3825 1.93515 16.3392 1.92092 16.2947 1.92092C16.2501 1.92092 16.2068 1.93515 16.1709 1.96152C16.1351 1.9879 16.1086 2.02504 16.0953 2.06754L13.1805 10.0618C13.0375 10.4553 12.7805 10.7973 12.4423 11.0442C12.1041 11.2911 11.7 11.4316 11.2816 11.448L2.73674 11.7708C2.69206 11.77 2.64833 11.7837 2.61197 11.8096C2.5756 11.8356 2.54853 11.8726 2.53472 11.915C2.52091 11.9575 2.52109 12.0033 2.53523 12.0457C2.54938 12.0881 2.57675 12.1248 2.61331 12.1505L9.32581 17.4294C9.65521 17.6869 9.9006 18.0365 10.0308 18.4338C10.161 18.8311 10.17 19.2581 10.0569 19.6606L7.74026 27.8637C7.72643 27.9047 7.72637 27.9492 7.74007 27.9903C7.75378 28.0314 7.78051 28.067 7.81621 28.0915C7.85061 28.121 7.89438 28.1371 7.93964 28.1371C7.9849 28.1371 8.02867 28.121 8.06306 28.0915L15.1458 23.3444C15.4915 23.1137 15.8981 22.9914 16.3137 22.9931L16.3231 22.9551Z" fill="#1D1D1B"/>
</svg>
