<svg width="44" height="40" viewBox="0 0 44 40" fill="none" xmlns="http://www.w3.org/2000/svg">
<g id="Group">
<path id="Vector" d="M2 12.8957C2 2 12.8957 2 22.2348 2C31.5739 2 42.4696 2 42.4696 12.8957C42.4696 25.3478 31.5739 11.3391 31.5739 11.3391H12.8957C12.8957 11.3391 2 25.3478 2 12.8957ZM14.4522 16.0087C14.4522 16.0087 6.66957 23.7913 6.66957 37.8H37.8C37.8 23.7913 30.0174 16.0087 30.0174 16.0087H14.4522Z" stroke="black" stroke-width="2.5" stroke-linecap="round" stroke-linejoin="round"/>
<path id="Vector_2" d="M22.2349 33.1304C25.6735 33.1304 28.461 30.3429 28.461 26.9043C28.461 23.4657 25.6735 20.6782 22.2349 20.6782C18.7963 20.6782 16.0088 23.4657 16.0088 26.9043C16.0088 30.3429 18.7963 33.1304 22.2349 33.1304Z" stroke="black" stroke-width="2.5" stroke-linecap="round" stroke-linejoin="round"/>
</g>
</svg>
