<svg width="16" height="18" viewBox="0 0 16 18" fill="none" xmlns="http://www.w3.org/2000/svg">
<path fill-rule="evenodd" clip-rule="evenodd" d="M9.57764 1.29734H5.55643C5.42933 1.92056 5.12176 2.49264 4.67201 2.94239C4.22225 3.39215 3.65017 3.69971 3.02695 3.82681V4.38892C3.65017 4.51602 4.22225 4.82359 4.67201 5.27334C5.12176 5.72309 5.42933 6.29518 5.55643 6.9184H9.57764C9.70475 6.29518 10.0123 5.72309 10.4621 5.27334C10.9118 4.82359 11.4839 4.51602 12.1071 4.38892V3.82681C11.4839 3.69971 10.9118 3.39215 10.4621 2.94239C10.0123 2.49264 9.70475 1.92056 9.57764 1.29734ZM10.1008 0.00276731C9.86331 0.000461231 9.61022 -0.000403565 9.34156 0.000172954H5.79251C5.52385 0.000172954 5.27105 0.00103775 5.0341 0.00276731C4.98684 -0.000253077 4.9394 0.000614637 4.89228 0.00536166C4.5014 0.0122799 4.15462 0.0287106 3.85368 0.0693551C3.3106 0.141996 2.82027 0.302845 2.4268 0.696319C2.03246 1.09066 1.87161 1.58099 1.79897 2.1232C1.75832 2.42501 1.74189 2.77179 1.73497 3.16267C1.73028 3.2095 1.72941 3.25665 1.73238 3.30362C1.73007 3.54173 1.72921 3.79482 1.72979 4.0629V4.15284C1.72979 4.42092 1.73065 4.67401 1.73238 4.91211C1.72941 4.95909 1.73028 5.00623 1.73497 5.05307C1.74189 5.44481 1.75832 5.79072 1.79897 6.09167C1.87161 6.63475 2.03246 7.12508 2.4268 7.51855C2.82027 7.91289 3.3106 8.07374 3.85368 8.14638C4.15462 8.18702 4.5014 8.20345 4.89228 8.21037C4.9394 8.21512 4.98684 8.21599 5.0341 8.21297C5.27105 8.21527 5.52385 8.21614 5.79251 8.21556H9.34156C9.60964 8.21556 9.86273 8.2147 10.1008 8.21297C10.1478 8.21594 10.195 8.21507 10.2418 8.21037C10.6335 8.20345 10.9803 8.18702 11.2804 8.14638C11.8235 8.07374 12.3138 7.91289 12.7073 7.51855C13.1016 7.12508 13.2625 6.63475 13.3351 6.09167C13.3754 5.74689 13.3967 5.40018 13.3991 5.05307C13.4038 5.00623 13.4047 4.95909 13.4017 4.91211C13.404 4.67401 13.4049 4.42092 13.4043 4.15284V4.0629C13.4043 3.79482 13.4034 3.54173 13.4017 3.30362C13.4047 3.25665 13.4038 3.2095 13.3991 3.16267C13.3967 2.81556 13.3754 2.46884 13.3351 2.12407C13.2625 1.58099 13.1016 1.09066 12.7081 0.697184C12.3138 0.302845 11.8235 0.141996 11.2813 0.0693551C10.9362 0.029059 10.5892 0.00769594 10.2418 0.00536166C10.195 0.000661908 10.1478 -0.00020577 10.1008 0.00276731ZM10.9345 1.33539C11.0325 1.59403 11.1844 1.8289 11.38 2.02449C11.5756 2.22008 11.8104 2.37192 12.0691 2.46998C12.0636 2.4122 12.057 2.35454 12.0492 2.29702C11.9964 1.8975 11.903 1.72627 11.7897 1.61385C11.6765 1.50143 11.507 1.4089 11.1083 1.35441C11.0508 1.34691 10.9931 1.34057 10.9353 1.33539M12.0699 5.74576C11.8113 5.84382 11.5764 5.99566 11.3808 6.19125C11.1852 6.38683 11.0334 6.62171 10.9353 6.88034C10.9959 6.87458 11.0535 6.86824 11.1083 6.86132C11.5078 6.80684 11.6791 6.71431 11.7915 6.60189C11.9039 6.48946 11.9973 6.31824 12.0509 5.91871C12.0578 5.86394 12.0642 5.80629 12.0699 5.74576ZM4.20046 6.88034C4.1024 6.62171 3.95055 6.38683 3.75497 6.19125C3.55938 5.99566 3.3245 5.84382 3.06587 5.74576C3.07163 5.80629 3.07826 5.86394 3.08576 5.91871C3.13937 6.31824 3.23191 6.48946 3.34519 6.60189C3.45848 6.71431 3.62797 6.80684 4.02664 6.86132C4.08198 6.86824 4.13992 6.87458 4.20046 6.88034ZM3.06587 2.46998C3.3245 2.37192 3.55938 2.22008 3.75497 2.02449C3.95055 1.8289 4.1024 1.59403 4.20046 1.33539C4.13992 1.34115 4.08227 1.34778 4.0275 1.35528C3.62797 1.4089 3.45675 1.50143 3.34433 1.61471C3.23191 1.728 3.13937 1.8975 3.08489 2.29616L3.06587 2.46998ZM7.56704 3.89167C7.5097 3.89167 7.45471 3.91445 7.41416 3.95499C7.37362 3.99554 7.35084 4.05053 7.35084 4.10787C7.35084 4.16521 7.37362 4.2202 7.41416 4.26074C7.45471 4.30128 7.5097 4.32406 7.56704 4.32406C7.62437 4.32406 7.67936 4.30128 7.71991 4.26074C7.76045 4.2202 7.78323 4.16521 7.78323 4.10787C7.78323 4.05053 7.76045 3.99554 7.71991 3.95499C7.67936 3.91445 7.62437 3.89167 7.56704 3.89167ZM6.05367 4.10787C6.05367 3.7065 6.21312 3.32157 6.49693 3.03776C6.78074 2.75395 7.16567 2.59451 7.56704 2.59451C7.9684 2.59451 8.35333 2.75395 8.63714 3.03776C8.92095 3.32157 9.0804 3.7065 9.0804 4.10787C9.0804 4.50924 8.92095 4.89417 8.63714 5.17798C8.35333 5.46179 7.9684 5.62123 7.56704 5.62123C7.16567 5.62123 6.78074 5.46179 6.49693 5.17798C6.21312 4.89417 6.05367 4.50924 6.05367 4.10787ZM4.69943 10.5487C6.31311 10.2365 8.04007 10.3066 9.43841 11.1402C9.63385 11.257 9.81892 11.4031 9.9789 11.583C10.3041 11.9488 10.4718 12.402 10.4796 12.8568C10.6445 12.7496 10.8108 12.6323 10.9786 12.5049L12.5421 11.3244C12.9338 11.037 13.407 10.882 13.8929 10.882C14.3788 10.882 14.852 11.037 15.2437 11.3244C15.9658 11.8692 16.2546 12.849 15.7366 13.6792C15.3691 14.2681 14.8156 15.0836 14.2518 15.606C13.681 16.1335 12.8707 16.578 12.2576 16.8737C11.5122 17.2335 10.7079 17.4324 9.92529 17.5586C8.32545 17.8181 6.66161 17.7783 5.0808 17.4523C4.26557 17.2846 3.4355 17.1997 2.60321 17.1989H0.648814C0.476799 17.1989 0.311829 17.1305 0.190196 17.0089C0.0685633 16.8873 0.000230652 16.7223 0.000230652 16.5503C0.000230652 16.3783 0.0685633 16.2133 0.190196 16.0917C0.311829 15.97 0.476799 15.9017 0.648814 15.9017H2.60321C3.52161 15.9017 4.44951 15.9977 5.34283 16.1819C6.78369 16.4776 8.26616 16.5101 9.7186 16.2779C10.4346 16.162 11.104 15.9899 11.6938 15.7054C12.2844 15.42 12.9485 15.0447 13.3697 14.6547C13.796 14.2595 14.2725 13.5755 14.6366 12.9926C14.7464 12.8162 14.7309 12.5628 14.4619 12.3596C14.1419 12.1174 13.643 12.1174 13.3239 12.3596L11.7612 13.54C11.1368 14.0113 10.3689 14.5155 9.4168 14.6677C9.31705 14.6835 9.217 14.6973 9.11672 14.7092C9.06714 14.7178 9.01554 14.7236 8.96192 14.7265C8.40631 14.7804 7.84678 14.7804 7.29117 14.7265C7.20503 14.7202 7.12101 14.6968 7.04403 14.6577C6.96705 14.6185 6.89867 14.5644 6.84289 14.4985C6.78711 14.4325 6.74506 14.3561 6.71921 14.2737C6.69336 14.1913 6.68423 14.1046 6.69235 14.0186C6.70047 13.9326 6.72568 13.8491 6.7665 13.773C6.80732 13.6969 6.86293 13.6297 6.93007 13.5754C6.9972 13.5211 7.07451 13.4807 7.15746 13.4567C7.24041 13.4326 7.32732 13.4254 7.41311 13.4354C7.89284 13.4818 8.37599 13.4809 8.85555 13.4328L8.8815 13.4302C8.96218 13.3801 9.03075 13.3127 9.08225 13.233C9.13375 13.1532 9.1669 13.063 9.17931 12.9688C9.19171 12.8747 9.18307 12.7789 9.15401 12.6885C9.12494 12.5981 9.07617 12.5153 9.01122 12.4461C8.94185 12.3707 8.86171 12.306 8.7734 12.2541C7.7521 11.6444 6.38748 11.5432 4.94589 11.8217C3.53765 12.1044 2.20268 12.674 1.02413 13.495C0.954626 13.5443 0.876098 13.5794 0.793025 13.5984C0.709953 13.6173 0.623965 13.6197 0.539969 13.6054C0.455973 13.5911 0.375615 13.5604 0.303483 13.5151C0.23135 13.4697 0.168857 13.4106 0.11957 13.3411C0.0702831 13.2716 0.0351681 13.1931 0.0162299 13.11C-0.00270819 13.0269 -0.00509865 12.9409 0.00919511 12.8569C0.0380627 12.6873 0.133136 12.5361 0.2735 12.4365C1.60294 11.509 3.10979 10.8663 4.69943 10.5487Z" fill="#1D1D1B"/>
</svg>
