<svg width="29" height="18" viewBox="0 0 29 18" fill="none" xmlns="http://www.w3.org/2000/svg">
<path d="M13.3072 12.3595C14.5004 11.557 15.4063 10.388 15.891 9.02526C16.3756 7.66253 16.4132 6.17843 15.9982 4.79243C15.5833 3.40643 14.7378 2.19211 13.5868 1.32905C12.4358 0.465985 11.0404 0 9.60691 0C8.17344 0 6.77803 0.465985 5.62703 1.32905C4.47602 2.19211 3.63052 3.40643 3.21557 4.79243C2.80061 6.17843 2.83823 7.66253 3.32285 9.02526C3.80748 10.388 4.71339 11.557 5.90661 12.3595C3.74819 13.163 1.90484 14.6501 0.651632 16.5986C0.585767 16.6975 0.540018 16.8087 0.517042 16.9256C0.494067 17.0425 0.494324 17.1628 0.517799 17.2796C0.541274 17.3964 0.587498 17.5073 0.653785 17.6059C0.720071 17.7045 0.805098 17.7888 0.903922 17.8539C1.00275 17.919 1.1134 17.9637 1.22944 17.9852C1.34549 18.0067 1.46461 18.0048 1.5799 17.9794C1.69518 17.954 1.80431 17.9057 1.90096 17.8374C1.99761 17.769 2.07984 17.6819 2.14288 17.5812C2.95126 16.3252 4.05741 15.2932 5.3609 14.5787C6.66438 13.8643 8.1239 13.4901 9.60691 13.4901C11.0899 13.4901 12.5494 13.8643 13.8529 14.5787C15.1564 15.2932 16.2626 16.3252 17.0709 17.5812C17.2015 17.7772 17.4032 17.9135 17.6325 17.9605C17.8617 18.0075 18.1001 17.9615 18.296 17.8324C18.4919 17.7033 18.6297 17.5015 18.6795 17.2706C18.7293 17.0398 18.6872 16.7984 18.5622 16.5986C17.309 14.6501 15.4656 13.163 13.3072 12.3595ZM4.71027 6.74767C4.71027 5.76939 4.99746 4.81307 5.5355 3.99966C6.07355 3.18625 6.8383 2.55227 7.73305 2.1779C8.62779 1.80353 9.61234 1.70557 10.5622 1.89643C11.512 2.08728 12.3845 2.55837 13.0693 3.25012C13.7542 3.94187 14.2205 4.82321 14.4095 5.7827C14.5984 6.74218 14.5014 7.73671 14.1308 8.64053C13.7602 9.54434 13.1326 10.3168 12.3273 10.8604C11.5221 11.4039 10.5754 11.694 9.60691 11.694C8.30869 11.6925 7.06407 11.1709 6.14609 10.2436C5.22811 9.31629 4.71175 8.05905 4.71027 6.74767ZM28.0961 17.8431C27.8984 17.9733 27.6575 18.0189 27.4265 17.9698C27.1955 17.9207 26.9932 17.7809 26.8642 17.5812C26.0568 16.3245 24.9508 15.292 23.647 14.5778C22.3433 13.8637 20.8833 13.4906 19.4002 13.4926C19.1641 13.4926 18.9376 13.3979 18.7706 13.2292C18.6037 13.0605 18.5099 12.8318 18.5099 12.5933C18.5099 12.3548 18.6037 12.126 18.7706 11.9574C18.9376 11.7887 19.1641 11.694 19.4002 11.694C20.1213 11.6933 20.8333 11.5317 21.4855 11.2208C22.1376 10.9099 22.7137 10.4574 23.1726 9.8955C23.6315 9.33363 23.9619 8.67631 24.1402 7.9705C24.3185 7.26469 24.3402 6.52782 24.2039 5.81254C24.0676 5.09726 23.7765 4.42122 23.3515 3.83273C22.9266 3.24424 22.3782 2.75783 21.7456 2.40824C21.1129 2.05866 20.4117 1.85453 19.6919 1.81045C18.9721 1.76637 18.2516 1.88342 17.5817 2.15325C17.4725 2.20093 17.355 2.22603 17.236 2.22704C17.117 2.22806 16.9991 2.20498 16.8891 2.15916C16.7791 2.11334 16.6793 2.04572 16.5956 1.96028C16.5119 1.87485 16.446 1.77334 16.4019 1.66175C16.3577 1.55017 16.3361 1.43076 16.3383 1.3106C16.3406 1.19044 16.3667 1.07195 16.4151 0.962149C16.4634 0.852345 16.5331 0.753447 16.6199 0.6713C16.7068 0.589153 16.8091 0.525422 16.9207 0.483875C18.4536 -0.133678 20.1587 -0.155902 21.7069 0.421492C23.2551 0.998886 24.5367 2.13498 25.3046 3.61062C26.0725 5.08625 26.2722 6.79686 25.8652 8.41245C25.4581 10.028 24.4732 11.4341 23.1005 12.3595C25.2589 13.163 27.1022 14.6501 28.3554 16.5986C28.4844 16.7984 28.5295 17.0417 28.4809 17.2751C28.4323 17.5085 28.2939 17.7128 28.0961 17.8431Z" fill="#1D1D1B"/>
</svg>
