<svg width="52" height="51" viewBox="0 0 52 51" fill="none" xmlns="http://www.w3.org/2000/svg">
<path d="M25.9587 15.2752C23.1583 15.2752 20.7609 16.2724 18.7666 18.2666C16.7724 20.2609 15.7752 22.6583 15.7752 25.4587C15.7752 27.3681 16.253 29.129 17.2086 30.7414C18.1641 32.3538 19.4897 33.6055 21.1852 34.4966C21.8641 34.836 22.3419 35.3342 22.6185 35.991C22.8952 36.6478 22.8842 37.3166 22.5855 37.9972C22.2884 38.5912 21.8429 39.0367 21.2489 39.3337C20.6548 39.6308 20.0608 39.6308 19.4668 39.3337C16.7936 38.0608 14.6618 36.1726 13.0715 33.6692C11.4812 31.1657 10.6852 28.4289 10.6835 25.4587C10.6835 21.2156 12.1686 17.609 15.1388 14.6388C18.109 11.6686 21.7156 10.1835 25.9587 10.1835C28.9713 10.1835 31.7404 10.9795 34.2659 12.5715C36.7914 14.1635 38.6686 16.3377 39.8974 19.094C40.152 19.6881 40.1418 20.2821 39.8668 20.8762C39.5919 21.4702 39.1565 21.8945 38.5608 22.1491C37.8819 22.4461 37.203 22.4461 36.5241 22.1491C35.8452 21.8521 35.336 21.3641 34.9966 20.6852C34.1055 18.988 32.8538 17.6624 31.2414 16.7086C29.629 15.7547 27.8681 15.2769 25.9587 15.2752ZM25.9587 5.09175C20.273 5.09175 15.457 7.0648 11.5109 11.0109C7.5648 14.957 5.59175 19.7729 5.59175 25.4587C5.59175 30.8051 7.35264 35.3876 10.8744 39.2064C14.3962 43.0253 18.8091 45.1892 24.113 45.6984C24.8343 45.7833 25.4597 46.1015 25.9893 46.6531C26.5188 47.2047 26.7632 47.8412 26.7225 48.5625C26.6818 49.2839 26.4161 49.8779 25.9256 50.3446C25.4351 50.8114 24.8309 51.0235 24.113 50.9811C20.8033 50.7689 17.716 49.9415 14.8511 48.4989C11.9861 47.0562 9.48269 45.1782 7.34076 42.8649C5.19884 40.5515 3.5228 37.8996 2.31266 34.909C1.10253 31.9185 0.498306 28.7684 0.500004 25.4587C0.500004 21.9369 1.16872 18.6273 2.50615 15.5298C3.84358 12.4323 5.65709 9.73796 7.94668 7.44668C10.2363 5.15539 12.9307 3.34188 16.0298 2.00615C19.129 0.670413 22.4386 0.00169725 25.9587 0C32.6204 0 38.4233 2.27007 43.3674 6.81021C48.3115 11.3504 51.0161 16.9513 51.4811 23.613C51.566 24.2919 51.3649 24.8757 50.8777 25.3645C50.3906 25.8533 49.7856 26.1181 49.0625 26.1588C48.3395 26.1996 47.6929 25.9662 47.1226 25.4587C46.5523 24.9513 46.223 24.336 46.1348 23.613C45.4983 18.5212 43.2817 14.1618 39.485 10.5348C35.6882 6.9078 31.1795 5.09344 25.9587 5.09175ZM45.1801 49.6445L36.7787 41.3068L34.8693 47.0986C34.6571 47.6927 34.254 47.9795 33.66 47.9592C33.066 47.9388 32.6629 47.6307 32.4507 47.035L26.6588 27.75C26.4891 27.2833 26.5952 26.859 26.9771 26.4771C27.359 26.0952 27.7833 25.9891 28.25 26.1588L47.535 31.9507C48.1291 32.1629 48.4371 32.566 48.4592 33.16C48.4812 33.754 48.1944 34.1571 47.5987 34.3693L41.8068 36.2787L50.2082 44.6801C50.9295 45.4014 51.2902 46.2288 51.2902 47.1623C51.2902 48.0958 50.9295 48.9232 50.2082 49.6445C49.4868 50.3659 48.6493 50.7265 47.6954 50.7265C46.7415 50.7265 45.9031 50.3659 45.1801 49.6445Z" fill="#1D1D1B"/>
</svg>
